<?xml version="1.0" encoding="UTF-8"?>
<svg id="Layer_2" data-name="Layer 2" xmlns="http://www.w3.org/2000/svg" viewBox="0 0 1005.44 316.04" xmlns:c2pa="http://c2pa.org/manifest"><metadata><c2pa:manifest>AABtL2p1bWIAAAAeanVtZGMycGEAEQAQgAAAqgA4m3EDYzJwYQAAADU2anVtYgAAAEdqdW1kYzJtYQARABCAAACqADibcQN1cm46YzJwYTo4NmM1MzgyNi02NTM0LTRmZjktOTEyMi02OWFiYmE0N2FhYjEAAAAC4mp1bWIAAAApanVtZGMyYXMAEQAQgAAAqgA4m3EDYzJwYS5hc3NlcnRpb25zAAAAAe5qdW1iAAAAQWp1bWRjYm9yABEAEIAAAKoAOJtxE2MycGEuYWN0aW9ucy52MgAAAAAYYzJzaBweIKKRKQohJZiE0XUVf3AAAAGlY2JvcqJnYWN0aW9uc4GlZmFjdGlvbmxjMnBhLmNyZWF0ZWRkd2hlbsB4HDIwMjYtMDktMThUMTM6MjU6MjQuODAxMzg1NFptc29mdHdhcmVBZ2VudGhHZW1pbmkgM2pwYXJhbWV0ZXJzongbY29tLmFkb2JlLmRpZ2l0YWxTb3VyY2VUeXBleEZodHRwOi8vY3YuaXB0Yy5vcmcvbmV3c2NvZGVzL2RpZ2l0YWxzb3VyY2V0eXBlL3RyYWluZWRBbGdvcml0aG1pY01lZGlhcWNvbS5hZG9iZS5nZW5BaUlkeCRhMjE1NzU3My03NTFjLTRjNjEtOWI3OS05YWUxZGFjNGI3YmVxZGlnaXRhbFNvdXJjZVR5cGV4Rmh0dHA6Ly9jdi5pcHRjLm9yZy9uZXdzY29kZXMvZGlnaXRhbHNvdXJjZXR5cGUvdHJhaW5lZEFsZ29yaXRobWljTWVkaWFpdGVtcGxhdGVzgaJmYWN0aW9uYSpydGVtcGxhdGVQYXJhbWV0ZXJzoXVjb20uYWRvYmUuYXBwRW5mb3JjZWT1AAAAw2p1bWIAAABAanVtZGNib3IAEQAQgAAAqgA4m3ETYzJwYS5oYXNoLmRhdGEAAAAAGGMyc2jE5UqramhvscpguXHarxeJAAAAe2Nib3KlamV4Y2x1c2lvbnOBomVzdGFydBghZmxlbmd0aBk1aGRuYW1lbmp1bWJmIG1hbmlmZXN0Y2FsZ2ZzaGEyNTZkaGFzaFgg4Cy2D3G8k+4uB2oZzk5VX6pqz+n+RmzCPaOpTF9vVsNjcGFkSAAAAAAAAAAAAAAB9Wp1bWIAAAAnanVtZGMyY2wAEQAQgAAAqgA4m3EDYzJwYS5jbGFpbS52MgAAAAHGY2JvcqZqaW5zdGFuY2VJRHgseG1wOmlpZDpiMTU5NzdiZS1kMGQxLTQ1OWQtOWI4Mi1iOGM5NzUyZjgyM2V0Y2xhaW1fZ2VuZXJhdG9yX2luZm+iZG5hbWVtQWRvYmUgRmlyZWZseXdvcmcuY29udGVudGF1dGguYzJwYV9yc2YwLjg2LjFpc2lnbmF0dXJleE1zZWxmI2p1bWJmPS9jMnBhL3VybjpjMnBhOjg2YzUzODI2LTY1MzQtNGZmOS05MTIyLTY5YWJiYTQ3YWFiMS9jMnBhLnNpZ25hdHVyZXJjcmVhdGVkX2Fzc2VydGlvbnOBomN1cmx4KXNlbGYjanVtYmY9YzJwYS5hc3NlcnRpb25zL2MycGEuaGFzaC5kYXRhZGhhc2hYIAK/kzKoGRIMA3HkfT/wubqBN60ujbOtL29j+cg5NpP5c2dhdGhlcmVkX2Fzc2VydGlvbnOBomN1cmx4KnNlbGYjanVtYmY9YzJwYS5hc3NlcnRpb25zL2MycGEuYWN0aW9ucy52MmRoYXNoWCC7jrVSUZYFuEnWbbJOhjobnCGVlMlj3G3X8IZuylfSemNhbGdmc2hhMjU2AAAwEGp1bWIAAAAoanVtZGMyY3MAEQAQgAAAqgA4m3EDYzJwYS5zaWduYXR1cmUAAAAv4GNib3LShFkNG6IBOCQYIYJZBqcwggajMIIEi6ADAgECAhQOavwUoPMpeGb9dCZGwIIvqmrW6zANBgkqhkiG9w0BAQsFADB1MQswCQYDVQQGEwJVUzEjMCEGA1UEChMaQWRvYmUgU3lzdGVtcyBJbmNvcnBvcmF0ZWQxHTAbBgNVBAsTFEFkb2JlIFRydXN0IFNlcnZpY2VzMSIwIAYDVQQDExlBZG9iZSBQcm9kdWN0IFNlcnZpY2VzIEc0MB4XDTI2MDgyMDE2MzQxNloXDTI3MDgyMDE2MzQxNlowgbIxGjAYBgNVBAMMEUFkb2JlIElsbHVzdHJhdG9yMSgwJgYDVQQLDB9Db250ZW50IEF1dGhlbnRpY2l0eSBJbml0aWF0aXZlMRMwEQYDVQQKDApBZG9iZSBJbmMuMREwDwYDVQQHDAhTYW4gSm9zZTETMBEGA1UECAwKQ2FsaWZvcm5pYTELMAkGA1UEBhMCVVMxIDAeBgkqhkiG9w0BCQEWEWNhaS1vcHNAYWRvYmUuY29tMIIBIjANBgkqhkiG9w0BAQEFAAOCAQ8AMIIBCgKCAQEA2iSJJWOOlXxpFY0q76twAsM7NQZ9BnhMCIOB0Aab3B4cd3tathmBTJfDDSNQfgv+hCTuSB7dtMm385Suzgfjm8N1opB3qsh8SHQhZ1LQKSKbFppycgcmBjZioZBKykktdE0lRHVCZNkCFHayKkzUhRGKw35TsvD+3kl5NHsyyJD5QwpDAHzmAklSP8/Ugbe2WOa6LUkmVAC65DNp5l7KchVgaEfXDySAKmpCcmkKpqSxeXVFZreUVTUrhq8gOYYmEYjcneBOQH6oIoZPuHSn9aMKxEoP2qr7hTCKkKFJB0r8KIhEHlTV0bYjSZoQfsJxivSwpSSpy54F1zFrOEprzwIDAQABo4IB6zCCAecwDgYDVR0PAQH/BAQDAgeAMCoGA1UdJQQjMCEGCSqGSIb3LwEBDAYKKwYBBAGD6F4CAQYIKwYBBQUHAwQwHQYDVR0OBBYEFC6d+xC0Smc56O6K+A4EJz8GaKZkMB8GA1UdIwQYMBaAFNCtQorwehQHJcaXwEOoI4XotS0jMIGOBgNVHSAEgYYwgYMwgYAGCSqGSIb3LwECAzBzMHEGCCsGAQUFBwICMGUMY1lvdSBhcmUgbm90IHBlcm1pdHRlZCB0byB1c2UgdGhpcyBMaWNlbnNlIENlcnRpZmljYXRlIGV4Y2VwdCBhcyBwZXJtaXR0ZWQgYnkgdGhlIGxpY2Vuc2UgYWdyZWVtZW50LjAMBgNVHRMBAf8EAjAAMIGABggrBgEFBQcBAQR0MHIwKAYIKwYBBQUHMAGGHGh0dHA6Ly9vY3NwLm9uZS5kaWdpY2VydC5jb20wRgYIKwYBBQUHMAKGOmh0dHA6Ly9jYWNlcnRzLm9uZS5kaWdpY2VydC5jb20vQWRvYmVQcm9kdWN0U2VydmljZXNHNC5jcnQwRwYDVR0fBEAwPjA8oDqgOIY2aHR0cDovL2NybC5vbmUuZGlnaWNlcnQuY29tL0Fkb2JlUHJvZHVjdFNlcnZpY2VzRzQuY3JsMA0GCSqGSIb3DQEBCwUAA4ICAQAUkr7YVvf9QC4Enwj+3v92MIr8wUlOEhfkBaubpfLyn+b23O9Jxf6I5pf4Alaola1nv0LuA7AwFm61ONEW/A2mhHVFKMflWcBjQWBTZnvWb0FI2fzJHe6zEa7gTgujzUcCzm4zuTUypXMmvxY3qePXLqrDx0wZ6sp4j6YgSw8VzCuMKU4VfD6Jv4HpfqJqfDjZQl8HAWxAsdPBBoWIZ79z/k2f7oX7YxCQAujgWAMFdvvzE7SXJHJ12l1JHfDl/aYmLtPouKqI6wlo+kHKXNigtT4LPZymAiLGL1/P8I0mGkKclhjYkfKVAbBAvRbb8QrQjuAJLzBvTTu1h9N1bftm3+kjqwL23PQ8E+gpqOYgRhg/8E/5k8UiFE5RqT9AspkNJRiBlAgcb/wC3hkDoYZboI+Z1rlnmalM08QZZUdv6e29LioGMXta3VIp6meDxzvEXfCCPcYAZhNMyL7o0SWohsBXu2fLcTenU+YkW8CK/94HwtD0d86IpiftYT7MjE5SuIPoN74hKz6AhF5p54TTCdTh0RvM+2R3Iac6vrxwMQNlRTUiWvIk/OeniiMoUGKws1uX+WwfeWJQhCWRH2Ry+Zq8SFDKuE9pmn1EOJpLdyonXHaxWU1NCbApQk5sJF4Totx8BE+x5vhie/knj+cLtrcKPssVYmtm0B1CHQXDNFkGZzCCBmMwggRLoAMCAQICEA7hut+teK5vJr1RJZgHiC8wDQYJKoZIhvcNAQELBQAwbDELMAkGA1UEBhMCVVMxIzAhBgNVBAoTGkFkb2JlIFN5c3RlbXMgSW5jb3Jwb3JhdGVkMR0wGwYDVQQLExRBZG9iZSBUcnVzdCBTZXJ2aWNlczEZMBcGA1UEAxMQQWRvYmUgUm9vdCBDQSBHMjAeFw0yNDExMjAwMDAwMDBaFw00NDExMTkyMzU5NTlaMHUxCzAJBgNVBAYTAlVTMSMwIQYDVQQKExpBZG9iZSBTeXN0ZW1zIEluY29ycG9yYXRlZDEdMBsGA1UECxMUQWRvYmUgVHJ1c3QgU2VydmljZXMxIjAgBgNVBAMTGUFkb2JlIFByb2R1Y3QgU2VydmljZXMgRzQwggIiMA0GCSqGSIb3DQEBAQUAA4ICDwAwggIKAoICAQCsRfiAsVhIvM7pgpniwolO2rOkQxJIAf8upxV3nHjAEAuWn8gs13lskCaJTuwpouDcOb7XsXQ981QsBu3FAJ95B6zWizbZBkvqqe4wht0KbwEpHUfrozqclojgf4gZclkfvHYxaY79zd9t7UeA6J/c3mdt/hnLZZnfg+SryNcykHVmByrTMRSWkSl8K3mzhOIreJVaD32PON73vTe3LiZRco9lbtzS669UYBBfo3VAABMp04RilVaFChtWm5rr5i6t+C5bgHESDBNExPBLhjDb6JkywGCNnODEl8Yayak4ZVkaPjLF4vieUv1WLJvob3eBZcLrPqheHAPtUBAzTIoncT0zI4tzlzQIbJxVjRRQbdEc0zUhbDkDmwyk6PdGAbxH0+iRqo8JK+4RH4/O4HDVV5M6CUhxAAyeJDZybua4Hn9i72KeHRtRKULJBjK2WqueYA3GylZuK52OTPd5R7BuAxLrH/92IoXTznXNLA4JgwyYrkEehpW9XyuEntCfb6Jl0kltadyAr901KXinfxkW9woQxaTHxw79FI3wkYfXnkQVxRglpAeg1L0jM+rgBxaQ7l4kcnpkY47MyU1sMdKehwcjHbb0UIYQPyX4BHCxLVHG+TE6Aq/g8CDuGWqDWpLSbyTkB7RtE0GwK4SIPv9+VK021T22YO6cZkJ404Gz7wIDAQABo4H3MIH0MBIGA1UdEwEB/wQIMAYBAf8CAQAwNQYDVR0fBC4wLDAqoCigJoYkaHR0cDovL2NybC5hZG9iZS5jb20vYWRvYmVyb290ZzIuY3JsMA4GA1UdDwEB/wQEAwIBhjBXBgNVHSAEUDBOMEwGCSqGSIb3LwECAzA/MD0GCCsGAQUFBwIBFjFodHRwczovL3d3dy5hZG9iZS5jb20vbWlzYy9wa2kvcHJvZF9zdmNlX2Nwcy5odG1sMB0GA1UdDgQWBBTQrUKK8HoUByXGl8BDqCOF6LUtIzAfBgNVHSMEGDAWgBSmHOFtVCRMqI9Icr9uqYzV5Owx1DANBgkqhkiG9w0BAQsFAAOCAgEAkZaoQ1NOzli5oWtvmKbWBDBa97RBPb4QS5Z5Te6HikVvUvFFRBiVDcBp8OBzMtiCHhhnOqZ9ofrOmVesSfAnY4DE/GaeTrWjTXuTv6h9+xBE7A8Te/ZVA6JVgJzvRk9S59X09uc+5/opUj0ORDFMyrE0bJaiTFUHkzmFjWF/NPnhXqE/P9LOjWS7MaHcOJfqQUXcryOYNoP74MU2D0I3YwXqiCDwWX1uTyOlicHrCVuubV2qndRjZpJAz5Tt2XEvKo9EzjcaQn6w7I05vjqV/ZNmL8pY7s/xi7LJsPYacMDmvYEiDoVa0dYUgqFpKx0NSlnmnnT0RItAHZUNDVwpT5n+wMQmTfHuH5DaL3bj18k5yON5zfDxTLFJsklMW/Ubcljh/OyriYwVZIF9j2yEbwsZ0Oka8xJTG8yn8P6A0bPD7Kv5ptzqlcRhPCahB+8pd5i2uzkBJOmwDI6hKDkZMbnRk39G3sle9iLuTJZJSGfS9ye1yyDm5lEYFYSX85gX7my8H0RptWmknH3sgi/9/E9IyrSqmJJQ4tQN1W1jwUjJ/LAnEu3Dq20S0LZtWOqhEvsxOS77fx57FQHgdXGkLsT/hW5XO2uMUG+rEZsuhZlVhW6sAtcs3l20qPZItvs3dzns4MnzZloKBI9zMJW0FzDYvVavJAPR3+K2si7NvH6jZ3NpZ1RzdDKhaXRzdFRva2Vuc4GhY3ZhbFkOTzCCDksGCSqGSIb3DQEHAqCCDjwwgg44AgEDMQ8wDQYJYIZIAWUDBAIBBQAwgYEGCyqGSIb3DQEJEAEEoHIEcDBuAgEBBglghkgBhv1sBwEwMTANBglghkgBZQMEAgEFAAQgIU16mnLYBFffaNcGaYJvSzy2RSwalnqAi1F/hCaiwaoCEFC19uPAGTwcHtaBS0FKWNQYDzIwMjYwOTE4MTMyNTI2WgIIS2qojBPsXLagggvaMIIFHjCCAwagAwIBAgIQA2KS/m/asSS6b0LLHgkYFjANBgkqhkiG9w0BAQsFADBpMQswCQYDVQQGEwJVUzEXMBUGA1UEChMORGlnaUNlcnQsIEluYy4xQTA/BgNVBAMTOERpZ2lDZXJ0IFRydXN0ZWQgRzQgVGltZVN0YW1waW5nIFJTQTQwOTYgU0hBMjU2IDIwMjUgQ0ExMB4XDTI2MDgwNTAwMDAwMFoXDTM3MTEwNDIzNTk1OVowXzELMAkGA1UEBhMCVVMxFzAVBgNVBAoTDkRpZ2lDZXJ0LCBJbmMuMTcwNQYDVQQDEy5BZG9iZSBTSEEyNTYgRUNDMjU2IFRpbWVzdGFtcCBSZXNwb25kZXIgMjAyNiAxMFkwEwYHKoZIzj0CAQYIKoZIzj0DAQcDQgAEsxTtyfPL3FikHmd3jnF9ynV6IggytGYCXGpXbN/ONPnRDNvFlf6C7eE/vqmJQqEP6sZR0F18I85/vK7lIy/MBKOCAZUwggGRMAwGA1UdEwEB/wQCMAAwHQYDVR0OBBYEFKGfP+qo6uqI+zg5kTGDVccesWEGMB8GA1UdIwQYMBaAFO9vU0rp5AZ8esrikFb2L9RJ7MtOMA4GA1UdDwEB/wQEAwIHgDAWBgNVHSUBAf8EDDAKBggrBgEFBQcDCDCBlQYIKwYBBQUHAQEEgYgwgYUwJAYIKwYBBQUHMAGGGGh0dHA6Ly9vY3NwLmRpZ2ljZXJ0LmNvbTBdBggrBgEFBQcwAoZRaHR0cDovL2NhY2VydHMuZGlnaWNlcnQuY29tL0RpZ2lDZXJ0VHJ1c3RlZEc0VGltZVN0YW1waW5nUlNBNDA5NlNIQTI1NjIwMjVDQTEuY3J0MF8GA1UdHwRYMFYwVKBSoFCGTmh0dHA6Ly9jcmwzLmRpZ2ljZXJ0LmNvbS9EaWdpQ2VydFRydXN0ZWRHNFRpbWVTdGFtcGluZ1JTQTQwOTZTSEEyNTYyMDI1Q0ExLmNybDAgBgNVHSAEGTAXMAgGBmeBDAEEAjALBglghkgBhv1sBwEwDQYJKoZIhvcNAQELBQADggIBALIW/YS8BrrsO+nDn1vx7Fdy5mGZyLVUo2scadcDpeWYdihfX+ppMP+vzlQL93tHWzrznEcqDZrF5QtrdVyePEiPLeuFwB8OZkKMHJti53Utyy/WeGAdQOEvu89Bd4g9uK1unOcUnKvInTx5TFtDvWaRzYQRUVvSxbUd/6OVYGk2qTuZFPJIXFkoTcTz7e7AuidOGLO1c3L9oncvDJ6kgM3hOIUtLqyryjfDMG7fJBa2pH2+FJB01ErFD/iLAKOQLqqx5mMif2p7HNUWLXJqY8xqgsKMWubKRWw0+40BRvArYCu09w+kFxPFqAKrgsq9K837Fo34j50yf03WLdy4faYVuOvAKkxvJjQZfp9V1+SlqHEDCHTtDaXN5wOiux058AzSXpKlRrEVA13ELU/d0pKnd1d+rXLOGftYl+ce+E7Uoc/g+v1duhJtJdRsa5SUybhMpHsvQuc06KcTEMizfasaDxXN0++fPPhL4GxBXIbpkCUGhvJ8yFXBMLUjmFJpF9cKaKAt8ZB8B3fPa/3fSrvqAd5Cw1Jk57l2EI7JQ1qyund+AbPA3Ou6GUK/YroMFaZDRbUoTBc6fVeaV5wpW/LeF47uyaeG4MyutB4K/pb3YZ8XB6gb50OVhljuAzOhs3T5wTmpc9L5n9MoGzTc3Hm6ERJH/JfKIxOmxPU4ghrGMIIGtDCCBJygAwIBAgIQDcesVwX/IZkuQEMiDDpJhjANBgkqhkiG9w0BAQsFADBiMQswCQYDVQQGEwJVUzEVMBMGA1UEChMMRGlnaUNlcnQgSW5jMRkwFwYDVQQLExB3d3cuZGlnaWNlcnQuY29tMSEwHwYDVQQDExhEaWdpQ2VydCBUcnVzdGVkIFJvb3QgRzQwHhcNMjUwNTA3MDAwMDAwWhcNMzgwMTE0MjM1OTU5WjBpMQswCQYDVQQGEwJVUzEXMBUGA1UEChMORGlnaUNlcnQsIEluYy4xQTA/BgNVBAMTOERpZ2lDZXJ0IFRydXN0ZWQgRzQgVGltZVN0YW1waW5nIFJTQTQwOTYgU0hBMjU2IDIwMjUgQ0ExMIICIjANBgkqhkiG9w0BAQEFAAOCAg8AMIICCgKCAgEAtHgx0wqYQXK+PEbAHKx126NGaHS0URedTa2NDZS1mZaDLFTtQ2oRjzUXMmxCqvkbsDpz4aH+qbxeLho8I6jY3xL1IusLopuW2qftJYJaDNs1+JH7Z+QdSKWM06qchUP+AbdJgMQB3h2DZ0Mal5kYp77jYMVQXSZH++0trj6Ao+xh/AS7sQRuQL37QXbDhAktVJMQbzIBHYJBYgzWIjk8eDrYhXDEpKk7RdoX0M980EpLtlrNyHw0Xm+nt5pnYJU3Gmq6bNMI1I7Gb5IBZK4ivbVCiZv7PNBYqHEpNVWC2ZQ8BbfnFRQVESYOszFI2Wv82wnJRfN20VRS3hpLgIR4hjzL0hpoYGk81coWJ+KdPvMvaB0WkE/2qHxJ0ucS638ZxqU14lDnki7CcoKCz6eum5A19WZQHkqUJfdkDjHkccpL6uoG8pbF0LJAQQZxst7VvwDDjAmSFTUms+wV/FbWBqi7fTJnjq3hj0XbQcd8hjj/q8d6ylgxCZSKi17yVp2NL+cnT6Toy+rN+nM8M7LnLqCrO2JP3oW//1sfuZDKiDEb1AQ8es9Xr/u6bDTnYCTKIsDq1BtmXUqEG1NqzJKS4kOmxkYp2WyODi7vQTCBZtVFJfVZ3j7OgWmnhFr4yUozZtqgPrHRVHhGNKlYzyjlroPxul+bgIspzOwbtmsgY1MCAwEAAaOCAV0wggFZMBIGA1UdEwEB/wQIMAYBAf8CAQAwHQYDVR0OBBYEFO9vU0rp5AZ8esrikFb2L9RJ7MtOMB8GA1UdIwQYMBaAFOzX44LScV1kTN8uZz/nupiuHA9PMA4GA1UdDwEB/wQEAwIBhjATBgNVHSUEDDAKBggrBgEFBQcDCDB3BggrBgEFBQcBAQRrMGkwJAYIKwYBBQUHMAGGGGh0dHA6Ly9vY3NwLmRpZ2ljZXJ0LmNvbTBBBggrBgEFBQcwAoY1aHR0cDovL2NhY2VydHMuZGlnaWNlcnQuY29tL0RpZ2lDZXJ0VHJ1c3RlZFJvb3RHNC5jcnQwQwYDVR0fBDwwOjA4oDagNIYyaHR0cDovL2NybDMuZGlnaWNlcnQuY29tL0RpZ2lDZXJ0VHJ1c3RlZFJvb3RHNC5jcmwwIAYDVR0gBBkwFzAIBgZngQwBBAIwCwYJYIZIAYb9bAcBMA0GCSqGSIb3DQEBCwUAA4ICAQAXzvsWgBz+Bz0RdnEwvb4LyLU0pn/N0IfFiBowf0/Dm1wGc/Do7oVMY2mhXZXjDNJQa8j00DNqhCT3t+s8G0iP5kvN2n7Jd2E4/iEIUBO41P5F448rSYJ59Ib61eoalhnd6ywFLerycvZTAz40y8S4F3/a+Z1jEMK/DMm/axFSgoR8n6c3nuZB9BfBwAQYK9FHaoq2e26MHvVY9gCDA/JYsq7pGdogP8HRtrYfctSLANEBfHU16r3J05qX3kId+ZOczgj5kjatVB+NdADVZKON/gnZruMvNYY2o1f4MXRJDMdTSlOLh0HCn2cQLwQCqjFbqrXuvTPSegOOzr4EWj7PtspIHBldNE2K9i697cvaiIo2p61Ed2p8xMJb82Yosn0z4y25xUbI7GIN/TpVfHIqQ6Ku/qjTY6hc3hsXMrS+U0yy+GWqAXam4ToWd2UQ1KYT70kZjE4YtL8Pbzg0c1ugMZyZZd/BdHLiRu7hAWE6bTEm4XYRkA6Tl4KSFLFk43esaUeqGkH/wyW4N7OigizwJWeukcyIPbAvjSabnf7+Pu0VrFgoiovRDiyx3zEdmcif/sYQsfch28bZeUz2rtY/9TCA6TD8dC3JE3rYkrhLULy7Dc90G6e8BlqmyIjlgp2+VqsS9/wQD7yFylIz0scmbKvFoW2jNrbM1pD2T7m3XDGCAb4wggG6AgEBMH0waTELMAkGA1UEBhMCVVMxFzAVBgNVBAoTDkRpZ2lDZXJ0LCBJbmMuMUEwPwYDVQQDEzhEaWdpQ2VydCBUcnVzdGVkIEc0IFRpbWVTdGFtcGluZyBSU0E0MDk2IFNIQTI1NiAyMDI1IENBMQIQA2KS/m/asSS6b0LLHgkYFjANBglghkgBZQMEAgEFAKCB0TAaBgkqhkiG9w0BCQMxDQYLKoZIhvcNAQkQAQQwHAYJKoZIhvcNAQkFMQ8XDTI2MDkxODEzMjUyNlowKwYLKoZIhvcNAQkQAgwxHDAaMBgwFgQUohwhqjWFOn6VjGerqKZukPJH2cQwLwYJKoZIhvcNAQkEMSIEIGN737W+yhS5RDqtWYP4X53QhcNoP4UAyhjzImhS2d48MDcGCyqGSIb3DQEJEAIvMSgwJjAkMCIEIICJbLcHAbLZw5p/SOCQIzOuZtWk1tb8yB3GsxW3X+cFMAoGCCqGSM49BAMCBEcwRQIhAKi5KOYvxzt2cJ0ZtKZiZcC18OM2FwbFYUQRWb1HL3HwAiADQhb912wiUDd2b5EwR5xxRyMJ/92QQ3pTFYrHtlfH0WVyVmFsc6Fob2NzcFZhbHOBWQLbMIIC1woBAKCCAtAwggLMBgkrBgEFBQcwAQEEggK9MIICuTCBoqIWBBTQrUKK8HoUByXGl8BDqCOF6LUtIxgPMjAyNjA5MTYxNjQxNThaMHcwdTBNMAkGBSsOAwIaBQAEFIrvsgEQb2tlFU3Bo7dRqYtzkssWBBTQrUKK8HoUByXGl8BDqCOF6LUtIwIUDmr8FKDzKXhm/XQmRsCCL6pq1uuAABgPMjAyNjA5MTYxNjQxNThaoBEYDzIwMjYwOTIzMTY0MTU4WjANBgkqhkiG9w0BAQsFAAOCAgEABPSyyvKbR8ds4PgLXeKOFrgfG8QUR+c/I+c+9UEUzG7BB7Oqc/sfWYqCwKdLV3Wcv91zAwfWw5f4i/KrEh/uZva9RWFOuEFXXje16MAJoH/vSTjhHRPKXgH/u0ZMbE52py+NS52HO23a2PM6OQ5xhXuqI86rYGNlTkh4ksxHFHlwqdy+QRnl6OHfth1cAOo3o5vLjD5SNT4++GA6LQxVu9VSbQtDN33dETw87guDDUKt0nWv8oG2FIMPMcCppVVOJuTr1rD02NGzOrIAZODciuICwzOODsjcS8wLX82huxiN64sSty42sSng4vQih823v7VqgtPj6CbUQG+hFjOdOvgSRpVoEAy+TkQWA77Ic6L2OmR+4VMbpxSje6xPQ7LJB9jyY8eYBnKSZjoUCPXICue5V2ObJzcynSngkYAxE4diiptK5DL/zcaMXEDKRDBDMvxe33rtUjpZLhCFC2RFALI7eHTBAc/74BFyS8pvItlA81LmihGy4nGkOIHG1V/DO7vPduV1/e7d9dN8Az1oqDSHvydNvq/9E+3S1P71RE20BFmfL2soGDun3a6i0I4fv3X4EIrz2XBjZ7SpTz0+/pBUItzKecSxYa42+kVfx4s16geDmkAWB4D3x8RqRkVwTBKN9sYgECX3U8kmLa05nWl9E/IlqPwP8BVMDQUaZ/pjcGFkWRBSAAAAAAAAAAAAAAAAAAAAAAAAAAAAAAAAAAAAAAAAAAAAAAAAAAAAAAAAAAAAAAAAAAAAAAAAAAAAAAAAAAAAAAAAAAAAAAAAAAAAAAAAAAAAAAAAAAAAAAAAAAAAAAAAAAAAAAAAAAAAAAAAAAAAAAAAAAAAAAAAAAAAAAAAAAAAAAAAAAAAAAAAAAAAAAAAAAAAAAAAAAAAAAAAAAAAAAAAAAAAAAAAAAAAAAAAAAAAAAAAAAAAAAAAAAAAAAAAAAAAAAAAAAAAAAAAAAAAAAAAAAAAAAAAAAAAAAAAAAAAAAAAAAAAAAAAAAAAAAAAAAAAAAAAAAAAAAAAAAAAAAAAAAAAAAAAAAAAAAAAAAAAAAAAAAAAAAAAAAAAAAAAAAAAAAAAAAAAAAAAAAAAAAAAAAAAAAAAAAAAAAAAAAAAAAAAAAAAAAAAAAAAAAAAAAAAAAAAAAAAAAAAAAAAAAAAAAAAAAAAAAAAAAAAAAAAAAAAAAAAAAAAAAAAAAAAAAAAAAAAAAAAAAAAAAAAAAAAAAAAAAAAAAAAAAAAAAAAAAAAAAAAAAAAAAAAAAAAAAAAAAAAAAAAAAAAAAAAAAAAAAAAAAAAAAAAAAAAAAAAAAAAAAAAAAAAAAAAAAAAAAAAAAAAAAAAAAAAAAAAAAAAAAAAAAAAAAAAAAAAAAAAAAAAAAAAAAAAAAAAAAAAAAAAAAAAAAAAAAAAAAAAAAAAAAAAAAAAAAAAAAAAAAAAAAAAAAAAAAAAAAAAAAAAAAAAAAAAAAAAAAAAAAAAAAAAAAAAAAAAAAAAAAAAAAAAAAAAAAAAAAAAAAAAAAAAAAAAAAAAAAAAAAAAAAAAAAAAAAAAAAAAAAAAAAAAAAAAAAAAAAAAAAAAAAAAAAAAAAAAAAAAAAAAAAAAAAAAAAAAAAAAAAAAAAAAAAAAAAAAAAAAAAAAAAAAAAAAAAAAAAAAAAAAAAAAAAAAAAAAAAAAAAAAAAAAAAAAAAAAAAAAAAAAAAAAAAAAAAAAAAAAAAAAAAAAAAAAAAAAAAAAAAAAAAAAAAAAAAAAAAAAAAAAAAAAAAAAAAAAAAAAAAAAAAAAAAAAAAAAAAAAAAAAAAAAAAAAAAAAAAAAAAAAAAAAAAAAAAAAAAAAAAAAAAAAAAAAAAAAAAAAAAAAAAAAAAAAAAAAAAAAAAAAAAAAAAAAAAAAAAAAAAAAAAAAAAAAAAAAAAAAAAAAAAAAAAAAAAAAAAAAAAAAAAAAAAAAAAAAAAAAAAAAAAAAAAAAAAAAAAAAAAAAAAAAAAAAAAAAAAAAAAAAAAAAAAAAAAAAAAAAAAAAAAAAAAAAAAAAAAAAAAAAAAAAAAAAAAAAAAAAAAAAAAAAAAAAAAAAAAAAAAAAAAAAAAAAAAAAAAAAAAAAAAAAAAAAAAAAAAAAAAAAAAAAAAAAAAAAAAAAAAAAAAAAAAAAAAAAAAAAAAAAAAAAAAAAAAAAAAAAAAAAAAAAAAAAAAAAAAAAAAAAAAAAAAAAAAAAAAAAAAAAAAAAAAAAAAAAAAAAAAAAAAAAAAAAAAAAAAAAAAAAAAAAAAAAAAAAAAAAAAAAAAAAAAAAAAAAAAAAAAAAAAAAAAAAAAAAAAAAAAAAAAAAAAAAAAAAAAAAAAAAAAAAAAAAAAAAAAAAAAAAAAAAAAAAAAAAAAAAAAAAAAAAAAAAAAAAAAAAAAAAAAAAAAAAAAAAAAAAAAAAAAAAAAAAAAAAAAAAAAAAAAAAAAAAAAAAAAAAAAAAAAAAAAAAAAAAAAAAAAAAAAAAAAAAAAAAAAAAAAAAAAAAAAAAAAAAAAAAAAAAAAAAAAAAAAAAAAAAAAAAAAAAAAAAAAAAAAAAAAAAAAAAAAAAAAAAAAAAAAAAAAAAAAAAAAAAAAAAAAAAAAAAAAAAAAAAAAAAAAAAAAAAAAAAAAAAAAAAAAAAAAAAAAAAAAAAAAAAAAAAAAAAAAAAAAAAAAAAAAAAAAAAAAAAAAAAAAAAAAAAAAAAAAAAAAAAAAAAAAAAAAAAAAAAAAAAAAAAAAAAAAAAAAAAAAAAAAAAAAAAAAAAAAAAAAAAAAAAAAAAAAAAAAAAAAAAAAAAAAAAAAAAAAAAAAAAAAAAAAAAAAAAAAAAAAAAAAAAAAAAAAAAAAAAAAAAAAAAAAAAAAAAAAAAAAAAAAAAAAAAAAAAAAAAAAAAAAAAAAAAAAAAAAAAAAAAAAAAAAAAAAAAAAAAAAAAAAAAAAAAAAAAAAAAAAAAAAAAAAAAAAAAAAAAAAAAAAAAAAAAAAAAAAAAAAAAAAAAAAAAAAAAAAAAAAAAAAAAAAAAAAAAAAAAAAAAAAAAAAAAAAAAAAAAAAAAAAAAAAAAAAAAAAAAAAAAAAAAAAAAAAAAAAAAAAAAAAAAAAAAAAAAAAAAAAAAAAAAAAAAAAAAAAAAAAAAAAAAAAAAAAAAAAAAAAAAAAAAAAAAAAAAAAAAAAAAAAAAAAAAAAAAAAAAAAAAAAAAAAAAAAAAAAAAAAAAAAAAAAAAAAAAAAAAAAAAAAAAAAAAAAAAAAAAAAAAAAAAAAAAAAAAAAAAAAAAAAAAAAAAAAAAAAAAAAAAAAAAAAAAAAAAAAAAAAAAAAAAAAAAAAAAAAAAAAAAAAAAAAAAAAAAAAAAAAAAAAAAAAAAAAAAAAAAAAAAAAAAAAAAAAAAAAAAAAAAAAAAAAAAAAAAAAAAAAAAAAAAAAAAAAAAAAAAAAAAAAAAAAAAAAAAAAAAAAAAAAAAAAAAAAAAAAAAAAAAAAAAAAAAAAAAAAAAAAAAAAAAAAAAAAAAAAAAAAAAAAAAAAAAAAAAAAAAAAAAAAAAAAAAAAAAAAAAAAAAAAAAAAAAAAAAAAAAAAAAAAAAAAAAAAAAAAAAAAAAAAAAAAAAAAAAAAAAAAAAAAAAAAAAAAAAAAAAAAAAAAAAAAAAAAAAAAAAAAAAAAAAAAAAAAAAAAAAAAAAAAAAAAAAAAAAAAAAAAAAAAAAAAAAAAAAAAAAAAAAAAAAAAAAAAAAAAAAAAAAAAAAAAAAAAAAAAAAAAAAAAAAAAAAAAAAAAAAAAAAAAAAAAAAAAAAAAAAAAAAAAAAAAAAAAAAAAAAAAAAAAAAAAAAAAAAAAAAAAAAAAAAAAAAAAAAAAAAAAAAAAAAAAAAAAAAAAAAAAAAAAAAAAAAAAAAAAAAAAAAAAAAAAAAAAAAAAAAAAAAAAAAAAAAAAAAAAAAAAAAAAAAAAAAAAAAAAAAAAAAAAAAAAAAAAAAAAAAAAAAAAAAAAAAAAAAAAAAAAAAAAAAAAAAAAAAAAAAAAAAAAAAAAAAAAAAAAAAAAAAAAAAAAAAAAAAAAAAAAAAAAAAAAAAAAAAAAAAAAAAAAAAAAAAAAAAAAAAAAAAAAAAAAAAAAAAAAAAAAAAAAAAAAAAAAAAAAAAAAAAAAAAAAAAAAAAAAAAAAAAAAAAAAAAAAAAAAAAAAAAAAAAAAAAAAAAAAAAAAAAAAAAAAAAAAAAAAAAAAAAAAAAAAAAAAAAAAAAAAAAAAAAAAAAAAAAAAAAAAAAAAAAAAAAAAAAAAAAAAAAAAAAAAAAAAAAAAAAAAAAAAAAAAAAAAAAAAAAAAAAAAAAAAAAAAAAAAAAAAAAAAAAAAAAAAAAAAAAAAAAAAAAAAAAAAAAAAAAAAAAAAAAAAAAAAAAAAAAAAAAAAAAAAAAAAAAAAAAAAAAAAAAAAAAAAAAAAAAAAAAAAAAAAAAAAAAAAAAAAAAAAAAAAAAAAAAAAAAAAAAAAAAAAAAAAAAAAAAAAAAAAAAAAAAAAAAAAAAAAAAAAAAAAAAAAAAAAAAAAAAAAAAAAAAAAAAAAAAAAAAAAAAAAAAAAAAAAAAAAAAAAAAAAAAAAAAAAAAAAAAAAAAAAAAAAAAAAAAAAAAAAAAAAAAAAAAAAAAAAAAAAAAAAAAAAAAAAAAAAAAAAAAAAAAAAAAAAAAAAAAAAAAAAAAAAAAAAAAAAAAAAAAAAAAAAAAAAAAAAAAAAAAAAAAAAAAAAAAAAAAAAAAAAAAAAAAAAAAAAAAAAAAAAAAAAAAAAAAAAAAAAAAAAAAAAAAAAAAAAAAAAAAAAAAAAAAAAAAAAAAAAAAAAAAAAAAAAAAAAAAAAAAAAAAAAAAAAAAAAAAAAAAAAAAAAAAAAAAAAAAAAAAAAAAAAAAAAAAAAAAAAAAAAAAAAAAAAAAAAAAAAAAAAAAAAAAAAAAAAAAAAAAAAAAAAAAAAAAAAAAAAAAAAAAAAAAAAAAAAAAAAAAAAAAAAAAAAAAAAAAAAAAAAAAAAAAAAAAAAAAAAAAAAAAAAAAAAAAAAAAAAAAAAAAAAAAAAAAAAAAAAAAAAAAAAAAAAAAAAAAAAAAAAAAAAAAAAAAAAAAAAAAAAAAAAAAAAAAAAAAAAAAAAAAAAAAAAAAAAAAAAAAAAAAAAAAAAAAAAAAAAAAAAAAAAAAAAAAAAAAAAAAAAAAAAAAAAAAAAAAAAAAAAAAAAAAAAAAAAAAAAAAAAAAAAAAAAAAAAAAAAAAAAAAAAAAAAAAAAAAAAAAAAAAAAAAAAAAAAAAAAAAAAAAAAAAAAAAAAAAAAAAAAAAAAAAAAAAAAAAAAAAAAAAAAAAAAAAAAAAAAAAAAAAAAAAAAAAAAAAAAAAAAAAAAAAAAAAAAAAAAAAAAAAAAAAAAAAAAAAAAAAAAAAAAAAAAAAAAAAAAAAAAAAAAAAAAAAAAAAAAAAAAAAAAAAAAAAAAAAAAAAAAAAAAAAAAAAAAAAAAAAAAAAAAAAAAAAAAAAAAAAAAAAAAAAAAAAAAAAAAAAAAAAAAAAAAAAAAAAAAAAAAAAAAAAAAAAAAAAAAAAAAAAAAAAAAAAAAAAAAAAAAAAAAAAAAAAAAAAAAAAAAAAAAAAAAAAAAAAAAAAAAAAAAAAAAAAAAAAAAAAAAAAAAAAAAAAAAAAAAAAAAAAAAAAAAAAAAAAAAAAAAAAAAAAAAAAAAAAAAAAAAAAAAAAAAAAAAAAAAAAAAAAAAAAAAAAAAAAAAAAAAAAAAAAAAAAAAAAAAAAAAAAAAAAAAAAAAAAAAAAAAAAAAAAAAAAAAAAAAAAAAAAAAAAAAAAAAAAAAAAAAAAAAAAAAAAAAAAAAAAAAAAAAAAAAAAAAAAAAAAAAAAAAAAAAAAAAAAAAAAAAAAAAAAAAAAAAAAAAAAAAAAAAAAAAAAAAAAAAAAAAAAAAAAAAAAAAAAAAAAAAAAAAAAAAAAAAAAAAAAAAAAAAAAAAAAAAAAAAAAAAAAAAAAAAAAAAAAAAAAAAAAAAAAAAAAAAAAAAAAAAAAAAAAAAAAAAAAAAAAAAAAAAAAAAAAAAAAAAAAAAAAAAAAAAAAAAAAAAAAAAAAAAAAAAAAAAAAAAAAAAAAAAAAAAAAAAAAAAAAAAAAAAAAAAAAAAAAAAAAAAAAAAAAAAAAAAAAAAAAAAAAAAAAAAAAAAAAAAAAAAAAAAAAAAAAAAAAAAAAAAAAAAAAAAAAAAAAAAAAAAAAAAAAAAAAAAAAAAAAAAAAAAAAAAAAAAAAAAAAAAAAAAD2WQEAbS6iPjTRxbbXatSmpNECEUVU/8vygQdb0V808W/sWxd5SADtfyJAMWRC9ttRMcTx/1UCbZHj4DCVJbWrBPOKT3QbMeTA27ESpfonYgfVeCJ+zG2ffX3CmC6bCyfij4mdtbvFGVrOb7Iqh9EpxdEMXx0EsDA9EslL8eNQVjv08J4w0pDVS3O0hrM1iq6PpWpAsHkJn0xioLDyBzzLsG3cDbD+b82ppK85HVLatBD7N+NNX9rntcNdC2aomkpTYxzzhK5/ZAc/rhTCP+vo1sfXomWez/c4z4yhj/0sKkMQrCFhH35U8rIMReG0t/JZyyhSWUAft9PUCbCp7mj8zfPUmQAAN9NqdW1iAAAAR2p1bWRjMm1hABEAEIAAAKoAOJtxA3VybjpjMnBhOmMyOTc2MDE4LTliY2QtNDUwNy05NGZmLTM2YzlkMDc5YzRhNQAAAAXnanVtYgAAAClqdW1kYzJhcwARABCAAACqADibcQNjMnBhLmFzc2VydGlvbnMAAAACPGp1bWIAAABEanVtZGNib3IAEQAQgAAAqgA4m3ETYzJwYS5pbmdyZWRpZW50LnYzAAAAABhjMnNoXXRSQYp7fyuVVeB/92HI3gAAAfBjYm9yp2xyZWxhdGlvbnNoaXBrY29tcG9uZW50T2ZoZGM6dGl0bGV3QUkgR2VuZXJhdGVkIEluZ3JlZGllbnRpZGM6Zm9ybWF0aWltYWdlL3BuZ3F2YWxpZGF0aW9uUmVzdWx0c6FuYWN0aXZlTWFuaWZlc3SjZ3N1Y2Nlc3OAbWluZm9ybWF0aW9uYWyAZ2ZhaWx1cmWAamluc3RhbmNlSUR4LXVybjp1dWlkOjc0ZDUwYmExLTAyMWMtNDc2MS1hMGQzLTljOWY3NDE4NWJhNm5hY3RpdmVNYW5pZmVzdKNjdXJseD5zZWxmI2p1bWJmPS9jMnBhL3VybjpjMnBhOjg2YzUzODI2LTY1MzQtNGZmOS05MTIyLTY5YWJiYTQ3YWFiMWNhbGdmc2hhMjU2ZGhhc2hYIBpu0m3fLByZwkb5fuEkTNc1IwRpNLawcaHFZRg2hwhHbmNsYWltU2lnbmF0dXJlo2N1cmx4TXNlbGYjanVtYmY9L2MycGEvdXJuOmMycGE6ODZjNTM4MjYtNjUzNC00ZmY5LTkxMjItNjlhYmJhNDdhYWIxL2MycGEuc2lnbmF0dXJlY2FsZ2ZzaGEyNTZkaGFzaFggHPDNw5nAXT45x1232kWD3Nx7xbE3oRX0hx95iXmLl9EAAAK2anVtYgAAAEFqdW1kY2JvcgARABCAAACqADibcRNjMnBhLmFjdGlvbnMudjIAAAAAGGMyc2ju5rlmSDER8IhnIyBpohj6AAACbWNib3KiZ2FjdGlvbnOComZhY3Rpb25sYzJwYS5jcmVhdGVkcWRpZ2l0YWxTb3VyY2VUeXBleCdodHRwOi8vYzJwYS5vcmcvZGlnaXRhbHNvdXJjZXR5cGUvZW1wdHmlZmFjdGlvbmtjMnBhLnBsYWNlZGR3aGVuwHQyMDI2LTA5LTE4VDEzOjI2OjA3Wm1zb2Z0d2FyZUFnZW50aEdlbWluaSAzanBhcmFtZXRlcnOja2luZ3JlZGllbnRzgaJjdXJseC1zZWxmI2p1bWJmPWMycGEuYXNzZXJ0aW9ucy9jMnBhLmluZ3JlZGllbnQudjNkaGFzaFggeskEUtXAekLriqgVXX8SzHPa3M18qBgoIwm60+jo+iFxY29tLmFkb2JlLmdlbkFpSWR4JDY5ZGQxNTM2LWRjODItNDBjNy05MDE0LWEzYWQ3ZWIwMzhkYngbY29tLmFkb2JlLmRpZ2l0YWxTb3VyY2VUeXBleFNodHRwOi8vY3YuaXB0Yy5vcmcvbmV3c2NvZGVzL2RpZ2l0YWxzb3VyY2V0eXBlL2NvbXBvc2l0ZVdpdGhUcmFpbmVkQWxnb3JpdGhtaWNNZWRpYXFkaWdpdGFsU291cmNlVHlwZXhTaHR0cDovL2N2LmlwdGMub3JnL25ld3Njb2Rlcy9kaWdpdGFsc291cmNldHlwZS9jb21wb3NpdGVXaXRoVHJhaW5lZEFsZ29yaXRobWljTWVkaWFpdGVtcGxhdGVzgaJmYWN0aW9uYSpydGVtcGxhdGVQYXJhbWV0ZXJzoXVjb20uYWRvYmUuYXBwRW5mb3JjZWT1AAAAxGp1bWIAAABAanVtZGNib3IAEQAQgAAAqgA4m3ETYzJwYS5oYXNoLmRhdGEAAAAAGGMyc2ihk5Vw2oGJu+yPZaNDACAvAAAAfGNib3KlamV4Y2x1c2lvbnOBomVzdGFydBjMZmxlbmd0aBmRlGRuYW1lbmp1bWJmIG1hbmlmZXN0Y2FsZ2ZzaGEyNTZkaGFzaFggH2sIVEO/DR5cbKlZLwrGXInhz34iitT1j3zMYN/cRDBjcGFkSQAAAAAAAAAAAAAAAmFqdW1iAAAAJ2p1bWRjMmNsABEAEIAAAKoAOJtxA2MycGEuY2xhaW0udjIAAAACMmNib3Kmamluc3RhbmNlSUR4LHhtcDppaWQ6YjJmODgxZTYtODMzMC00NDY5LTg3ZGEtYWUxMTZkODc5M2ZldGNsYWltX2dlbmVyYXRvcl9pbmZvo2RuYW1lcUFkb2JlIElsbHVzdHJhdG9yZ3ZlcnNpb25kMzAuOHdvcmcuY29udGVudGF1dGguYzJwYV9yc2YwLjg2LjFpc2lnbmF0dXJleE1zZWxmI2p1bWJmPS9jMnBhL3VybjpjMnBhOmMyOTc2MDE4LTliY2QtNDUwNy05NGZmLTM2YzlkMDc5YzRhNS9jMnBhLnNpZ25hdHVyZXJjcmVhdGVkX2Fzc2VydGlvbnOBomN1cmx4KXNlbGYjanVtYmY9YzJwYS5hc3NlcnRpb25zL2MycGEuaGFzaC5kYXRhZGhhc2hYIGjGHaSpZJvH5+jTtnojtdWYUUL22ynN6C7EYuaE0oR0c2dhdGhlcmVkX2Fzc2VydGlvbnOComN1cmx4LXNlbGYjanVtYmY9YzJwYS5hc3NlcnRpb25zL2MycGEuaW5ncmVkaWVudC52M2RoYXNoWCCxsQ14SUzmXEhM/yXEyrkBdSTm3bGOvbf3uULqp9pYuqJjdXJseCpzZWxmI2p1bWJmPWMycGEuYXNzZXJ0aW9ucy9jMnBhLmFjdGlvbnMudjJkaGFzaFggsxsJMKxoBKN1THC4bPHgHXEMEtNkVExkHsbEimvmJTtjYWxnZnNoYTI1NgAALzxqdW1iAAAAKGp1bWRjMmNzABEAEIAAAKoAOJtxA2MycGEuc2lnbmF0dXJlAAAALwxjYm9y0oRZBACiAScYIYJZAjowggI2MIIB6KADAgECAgd/izrmP5BfMAUGAytlcDBgMSAwHgYDVQQDExdjMnBhLWVwaGVtZXJhbC1jYS5sb2NhbDE8MDoGA1UEChMzU2VsZi1zaWduZWQgZXBoZW1lcmFsIENBIChDb250ZW50IEF1dGhlbnRpY2l0eSBTREspMB4XDTI2MDkxNzE5MzMwM1oXDTI3MDkxODE5MzMwM1owezEgMB4GA1UEAxMXQWRvYmUgQ29tcGxpYW5jZSBTaWduZXIxVzBVBgNVBAoTTlNlbGYtc2lnbmVkIGVwaGVtZXJhbCBjZXJ0aWZpY2F0ZSAoQ29udGVudCBBdXRoZW50aWNpdHkgU0RLKSAtLSBMT0NBTCBVU0UgT05MWTAqMAUGAytlcAMhANjrf0vcy16EDH3WNnJyNROE76h+Tp05nSTQYTneyB+do4GlMIGiMA8GA1UdEwEB/wQFMAMBAQAwDgYDVR0PAQH/BAQDAgCAMB0GA1UdJQQWMBQGCCsGAQUFBwMEBggrBgEFBQcDADAbBgNVHQ4EFEAC4gsbrFCpI88WhUuePSaldX5+MB8GA1UdIwQYMBaAFEgr9tuoPXmzzwRhHbKU+LaIK3b+MCIGA1UdEQQbMBmCF0Fkb2JlIENvbXBsaWFuY2UgU2lnbmVyMAUGAytlcANBADbkAH7V5BCpCPfL/VrbXzYR3zqn65L4Pvf8rxUNZUOBqdWvpdWPRamRKBTSsyBcEpX6lIrIgHWCc8qj1EQy4AFZAbowggG2MIIBaKADAgECAggA/xdcGz925TAFBgMrZXAwYDEgMB4GA1UEAxMXYzJwYS1lcGhlbWVyYWwtY2EubG9jYWwxPDA6BgNVBAoTM1NlbGYtc2lnbmVkIGVwaGVtZXJhbCBDQSAoQ29udGVudCBBdXRoZW50aWNpdHkgU0RLKTAeFw0yNjA5MTcxOTMzMDNaFw0yNzA5MTgxOTMzMDNaMGAxIDAeBgNVBAMTF2MycGEtZXBoZW1lcmFsLWNhLmxvY2FsMTwwOgYDVQQKEzNTZWxmLXNpZ25lZCBlcGhlbWVyYWwgQ0EgKENvbnRlbnQgQXV0aGVudGljaXR5IFNESykwKjAFBgMrZXADIQCgXTzrLyg/4cY0l3OmzNhKnxC3xkp+exH6EERjJcB966NAMD4wDwYDVR0TAQH/BAUwAwEB/zAOBgNVHQ8BAf8EBAMCAIYwGwYDVR0OBBRIK/bbqD15s88EYR2ylPi2iCt2/jAFBgMrZXADQQD8IOhYMax5SBt2HQdFeKO6RWzFCChan0rrNDpaJOnDVLwZNDC9Phl84KnYQT1mzw5GzUrPcMAnvSDcq6U8eWsBoWNwYWRZKrQAAAAAAAAAAAAAAAAAAAAAAAAAAAAAAAAAAAAAAAAAAAAAAAAAAAAAAAAAAAAAAAAAAAAAAAAAAAAAAAAAAAAAAAAAAAAAAAAAAAAAAAAAAAAAAAAAAAAAAAAAAAAAAAAAAAAAAAAAAAAAAAAAAAAAAAAAAAAAAAAAAAAAAAAAAAAAAAAAAAAAAAAAAAAAAAAAAAAAAAAAAAAAAAAAAAAAAAAAAAAAAAAAAAAAAAAAAAAAAAAAAAAAAAAAAAAAAAAAAAAAAAAAAAAAAAAAAAAAAAAAAAAAAAAAAAAAAAAAAAAAAAAAAAAAAAAAAAAAAAAAAAAAAAAAAAAAAAAAAAAAAAAAAAAAAAAAAAAAAAAAAAAAAAAAAAAAAAAAAAAAAAAAAAAAAAAAAAAAAAAAAAAAAAAAAAAAAAAAAAAAAAAAAAAAAAAAAAAAAAAAAAAAAAAAAAAAAAAAAAAAAAAAAAAAAAAAAAAAAAAAAAAAAAAAAAAAAAAAAAAAAAAAAAAAAAAAAAAAAAAAAAAAAAAAAAAAAAAAAAAAAAAAAAAAAAAAAAAAAAAAAAAAAAAAAAAAAAAAAAAAAAAAAAAAAAAAAAAAAAAAAAAAAAAAAAAAAAAAAAAAAAAAAAAAAAAAAAAAAAAAAAAAAAAAAAAAAAAAAAAAAAAAAAAAAAAAAAAAAAAAAAAAAAAAAAAAAAAAAAAAAAAAAAAAAAAAAAAAAAAAAAAAAAAAAAAAAAAAAAAAAAAAAAAAAAAAAAAAAAAAAAAAAAAAAAAAAAAAAAAAAAAAAAAAAAAAAAAAAAAAAAAAAAAAAAAAAAAAAAAAAAAAAAAAAAAAAAAAAAAAAAAAAAAAAAAAAAAAAAAAAAAAAAAAAAAAAAAAAAAAAAAAAAAAAAAAAAAAAAAAAAAAAAAAAAAAAAAAAAAAAAAAAAAAAAAAAAAAAAAAAAAAAAAAAAAAAAAAAAAAAAAAAAAAAAAAAAAAAAAAAAAAAAAAAAAAAAAAAAAAAAAAAAAAAAAAAAAAAAAAAAAAAAAAAAAAAAAAAAAAAAAAAAAAAAAAAAAAAAAAAAAAAAAAAAAAAAAAAAAAAAAAAAAAAAAAAAAAAAAAAAAAAAAAAAAAAAAAAAAAAAAAAAAAAAAAAAAAAAAAAAAAAAAAAAAAAAAAAAAAAAAAAAAAAAAAAAAAAAAAAAAAAAAAAAAAAAAAAAAAAAAAAAAAAAAAAAAAAAAAAAAAAAAAAAAAAAAAAAAAAAAAAAAAAAAAAAAAAAAAAAAAAAAAAAAAAAAAAAAAAAAAAAAAAAAAAAAAAAAAAAAAAAAAAAAAAAAAAAAAAAAAAAAAAAAAAAAAAAAAAAAAAAAAAAAAAAAAAAAAAAAAAAAAAAAAAAAAAAAAAAAAAAAAAAAAAAAAAAAAAAAAAAAAAAAAAAAAAAAAAAAAAAAAAAAAAAAAAAAAAAAAAAAAAAAAAAAAAAAAAAAAAAAAAAAAAAAAAAAAAAAAAAAAAAAAAAAAAAAAAAAAAAAAAAAAAAAAAAAAAAAAAAAAAAAAAAAAAAAAAAAAAAAAAAAAAAAAAAAAAAAAAAAAAAAAAAAAAAAAAAAAAAAAAAAAAAAAAAAAAAAAAAAAAAAAAAAAAAAAAAAAAAAAAAAAAAAAAAAAAAAAAAAAAAAAAAAAAAAAAAAAAAAAAAAAAAAAAAAAAAAAAAAAAAAAAAAAAAAAAAAAAAAAAAAAAAAAAAAAAAAAAAAAAAAAAAAAAAAAAAAAAAAAAAAAAAAAAAAAAAAAAAAAAAAAAAAAAAAAAAAAAAAAAAAAAAAAAAAAAAAAAAAAAAAAAAAAAAAAAAAAAAAAAAAAAAAAAAAAAAAAAAAAAAAAAAAAAAAAAAAAAAAAAAAAAAAAAAAAAAAAAAAAAAAAAAAAAAAAAAAAAAAAAAAAAAAAAAAAAAAAAAAAAAAAAAAAAAAAAAAAAAAAAAAAAAAAAAAAAAAAAAAAAAAAAAAAAAAAAAAAAAAAAAAAAAAAAAAAAAAAAAAAAAAAAAAAAAAAAAAAAAAAAAAAAAAAAAAAAAAAAAAAAAAAAAAAAAAAAAAAAAAAAAAAAAAAAAAAAAAAAAAAAAAAAAAAAAAAAAAAAAAAAAAAAAAAAAAAAAAAAAAAAAAAAAAAAAAAAAAAAAAAAAAAAAAAAAAAAAAAAAAAAAAAAAAAAAAAAAAAAAAAAAAAAAAAAAAAAAAAAAAAAAAAAAAAAAAAAAAAAAAAAAAAAAAAAAAAAAAAAAAAAAAAAAAAAAAAAAAAAAAAAAAAAAAAAAAAAAAAAAAAAAAAAAAAAAAAAAAAAAAAAAAAAAAAAAAAAAAAAAAAAAAAAAAAAAAAAAAAAAAAAAAAAAAAAAAAAAAAAAAAAAAAAAAAAAAAAAAAAAAAAAAAAAAAAAAAAAAAAAAAAAAAAAAAAAAAAAAAAAAAAAAAAAAAAAAAAAAAAAAAAAAAAAAAAAAAAAAAAAAAAAAAAAAAAAAAAAAAAAAAAAAAAAAAAAAAAAAAAAAAAAAAAAAAAAAAAAAAAAAAAAAAAAAAAAAAAAAAAAAAAAAAAAAAAAAAAAAAAAAAAAAAAAAAAAAAAAAAAAAAAAAAAAAAAAAAAAAAAAAAAAAAAAAAAAAAAAAAAAAAAAAAAAAAAAAAAAAAAAAAAAAAAAAAAAAAAAAAAAAAAAAAAAAAAAAAAAAAAAAAAAAAAAAAAAAAAAAAAAAAAAAAAAAAAAAAAAAAAAAAAAAAAAAAAAAAAAAAAAAAAAAAAAAAAAAAAAAAAAAAAAAAAAAAAAAAAAAAAAAAAAAAAAAAAAAAAAAAAAAAAAAAAAAAAAAAAAAAAAAAAAAAAAAAAAAAAAAAAAAAAAAAAAAAAAAAAAAAAAAAAAAAAAAAAAAAAAAAAAAAAAAAAAAAAAAAAAAAAAAAAAAAAAAAAAAAAAAAAAAAAAAAAAAAAAAAAAAAAAAAAAAAAAAAAAAAAAAAAAAAAAAAAAAAAAAAAAAAAAAAAAAAAAAAAAAAAAAAAAAAAAAAAAAAAAAAAAAAAAAAAAAAAAAAAAAAAAAAAAAAAAAAAAAAAAAAAAAAAAAAAAAAAAAAAAAAAAAAAAAAAAAAAAAAAAAAAAAAAAAAAAAAAAAAAAAAAAAAAAAAAAAAAAAAAAAAAAAAAAAAAAAAAAAAAAAAAAAAAAAAAAAAAAAAAAAAAAAAAAAAAAAAAAAAAAAAAAAAAAAAAAAAAAAAAAAAAAAAAAAAAAAAAAAAAAAAAAAAAAAAAAAAAAAAAAAAAAAAAAAAAAAAAAAAAAAAAAAAAAAAAAAAAAAAAAAAAAAAAAAAAAAAAAAAAAAAAAAAAAAAAAAAAAAAAAAAAAAAAAAAAAAAAAAAAAAAAAAAAAAAAAAAAAAAAAAAAAAAAAAAAAAAAAAAAAAAAAAAAAAAAAAAAAAAAAAAAAAAAAAAAAAAAAAAAAAAAAAAAAAAAAAAAAAAAAAAAAAAAAAAAAAAAAAAAAAAAAAAAAAAAAAAAAAAAAAAAAAAAAAAAAAAAAAAAAAAAAAAAAAAAAAAAAAAAAAAAAAAAAAAAAAAAAAAAAAAAAAAAAAAAAAAAAAAAAAAAAAAAAAAAAAAAAAAAAAAAAAAAAAAAAAAAAAAAAAAAAAAAAAAAAAAAAAAAAAAAAAAAAAAAAAAAAAAAAAAAAAAAAAAAAAAAAAAAAAAAAAAAAAAAAAAAAAAAAAAAAAAAAAAAAAAAAAAAAAAAAAAAAAAAAAAAAAAAAAAAAAAAAAAAAAAAAAAAAAAAAAAAAAAAAAAAAAAAAAAAAAAAAAAAAAAAAAAAAAAAAAAAAAAAAAAAAAAAAAAAAAAAAAAAAAAAAAAAAAAAAAAAAAAAAAAAAAAAAAAAAAAAAAAAAAAAAAAAAAAAAAAAAAAAAAAAAAAAAAAAAAAAAAAAAAAAAAAAAAAAAAAAAAAAAAAAAAAAAAAAAAAAAAAAAAAAAAAAAAAAAAAAAAAAAAAAAAAAAAAAAAAAAAAAAAAAAAAAAAAAAAAAAAAAAAAAAAAAAAAAAAAAAAAAAAAAAAAAAAAAAAAAAAAAAAAAAAAAAAAAAAAAAAAAAAAAAAAAAAAAAAAAAAAAAAAAAAAAAAAAAAAAAAAAAAAAAAAAAAAAAAAAAAAAAAAAAAAAAAAAAAAAAAAAAAAAAAAAAAAAAAAAAAAAAAAAAAAAAAAAAAAAAAAAAAAAAAAAAAAAAAAAAAAAAAAAAAAAAAAAAAAAAAAAAAAAAAAAAAAAAAAAAAAAAAAAAAAAAAAAAAAAAAAAAAAAAAAAAAAAAAAAAAAAAAAAAAAAAAAAAAAAAAAAAAAAAAAAAAAAAAAAAAAAAAAAAAAAAAAAAAAAAAAAAAAAAAAAAAAAAAAAAAAAAAAAAAAAAAAAAAAAAAAAAAAAAAAAAAAAAAAAAAAAAAAAAAAAAAAAAAAAAAAAAAAAAAAAAAAAAAAAAAAAAAAAAAAAAAAAAAAAAAAAAAAAAAAAAAAAAAAAAAAAAAAAAAAAAAAAAAAAAAAAAAAAAAAAAAAAAAAAAAAAAAAAAAAAAAAAAAAAAAAAAAAAAAAAAAAAAAAAAAAAAAAAAAAAAAAAAAAAAAAAAAAAAAAAAAAAAAAAAAAAAAAAAAAAAAAAAAAAAAAAAAAAAAAAAAAAAAAAAAAAAAAAAAAAAAAAAAAAAAAAAAAAAAAAAAAAAAAAAAAAAAAAAAAAAAAAAAAAAAAAAAAAAAAAAAAAAAAAAAAAAAAAAAAAAAAAAAAAAAAAAAAAAAAAAAAAAAAAAAAAAAAAAAAAAAAAAAAAAAAAAAAAAAAAAAAAAAAAAAAAAAAAAAAAAAAAAAAAAAAAAAAAAAAAAAAAAAAAAAAAAAAAAAAAAAAAAAAAAAAAAAAAAAAAAAAAAAAAAAAAAAAAAAAAAAAAAAAAAAAAAAAAAAAAAAAAAAAAAAAAAAAAAAAAAAAAAAAAAAAAAAAAAAAAAAAAAAAAAAAAAAAAAAAAAAAAAAAAAAAAAAAAAAAAAAAAAAAAAAAAAAAAAAAAAAAAAAAAAAAAAAAAAAAAAAAAAAAAAAAAAAAAAAAAAAAAAAAAAAAAAAAAAAAAAAAAAAAAAAAAAAAAAAAAAAAAAAAAAAAAAAAAAAAAAAAAAAAAAAAAAAAAAAAAAAAAAAAAAAAAAAAAAAAAAAAAAAAAAAAAAAAAAAAAAAAAAAAAAAAAAAAAAAAAAAAAAAAAAAAAAAAAAAAAAAAAAAAAAAAAAAAAAAAAAAAAAAAAAAAAAAAAAAAAAAAAAAAAAAAAAAAAAAAAAAAAAAAAAAAAAAAAAAAAAAAAAAAAAAAAAAAAAAAAAAAAAAAAAAAAAAAAAAAAAAAAAAAAAAAAAAAAAAAAAAAAAAAAAAAAAAAAAAAAAAAAAAAAAAAAAAAAAAAAAAAAAAAAAAAAAAAAAAAAAAAAAAAAAAAAAAAAAAAAAAAAAAAAAAAAAAAAAAAAAAAAAAAAAAAAAAAAAAAAAAAAAAAAAAAAAAAAAAAAAAAAAAAAAAAAAAAAAAAAAAAAAAAAAAAAAAAAAAAAAAAAAAAAAAAAAAAAAAAAAAAAAAAAAAAAAAAAAAAAAAAAAAAAAAAAAAAAAAAAAAAAAAAAAAAAAAAAAAAAAAAAAAAAAAAAAAAAAAAAAAAAAAAAAAAAAAAAAAAAAAAAAAAAAAAAAAAAAAAAAAAAAAAAAAAAAAAAAAAAAAAAAAAAAAAAAAAAAAAAAAAAAAAAAAAAAAAAAAAAAAAAAAAAAAAAAAAAAAAAAAAAAAAAAAAAAAAAAAAAAAAAAAAAAAAAAAAAAAAAAAAAAAAAAAAAAAAAAAAAAAAAAAAAAAAAAAAAAAAAAAAAAAAAAAAAAAAAAAAAAAAAAAAAAAAAAAAAAAAAAAAAAAAAAAAAAAAAAAAAAAAAAAAAAAAAAAAAAAAAAAAAAAAAAAAAAAAAAAAAAAAAAAAAAAAAAAAAAAAAAAAAAAAAAAAAAAAAAAAAAAAAAAAAAAAAAAAAAAAAAAAAAAAAAAAAAAAAAAAAAAAAAAAAAAAAAAAAAAAAAAAAAAAAAAAAAAAAAAAAAAAAAAAAAAAAAAAAAAAAAAAAAAAAAAAAAAAAAAAAAAAAAAAAAAAAAAAAAAAAAAAAAAAAAAAAAAAAAAAAAAAAAAAAAAAAAAAAAAAAAAAAAAAAAAAAAAAAAAAAAAAAAAAAAAAAAAAAAAAAAAAAAAAAAAAAAAAAAAAAAAAAAAAAAAAAAAAAAAAAAAAAAAAAAAAAAAAAAAAAAAAAAAAAAAAAAAAAAAAAAAAAAAAAAAAAAAAAAAAAAAAAAAAAAAAAAAAAAAAAAAAAAAAAAAAAAAAAAAAAAAAAAAAAAAAAAAAAAAAAAAAAAAAAAAAAAAAAAAAAAAAAAAAAAAAAAAAAAAAAAAAAAAAAAAAAAAAAAAAAAAAAAAAAAAAAAAAAAAAAAAAAAAAAAAAAAAAAAAAAAAAAAAAAAAAAAAAAAAAAAAAAAAAAAAAAAAAAAAAAAAAAAAAAAAAAAAAAAAAAAAAAAAAAAAAAAAAAAAAAAAAAAAAAAAAAAAAAAAAAAAAAAAAAAAAAAAAAAAAAAAAAAAAAAAAAAAAAAAAAAAAAAAAAAAAAAAAAAAAAAAAAAAAAAAAAAAAAAAAAAAAAAAAAAAAAAAAAAAAAAAAAAAAAAAAAAAAAAAAAAAAAAAAAAAAAAAAAAAAAAAAAAAAAAAAAAAAAAAAAAAAAAAAAAAAAAAAAAAAAAAAAAAAAAAAAAAAAAAAAAAAAAAAAAAAAAAAAAAAAAAAAAAAAAAAAAAAAAAAAAAAAAAAAAAAAAAAAAAAAAAAAAAAAAAAAAAAAAAAAAAAAAAAAAAAAAAAAAAAAAAAAAAAAAAAAAAAAAAAAAAAAAAAAAAAAAAAAAAAAAAAAAAAAAAAAAAAAAAAAAAAAAAAAAAAAAAAAAAAAAAAAAAAAAAAAAAAAAAAAAAAAAAAAAAAAAAAAAAAAAAAAAAAAAAAAAAAAAAAAAAAAAAAAAAAAAAAAAAAAAAAAAAAAAAAAAAAAAAAAAAAAAAAAAAAAAAAAAAAAAAAAAAAAAAAAAAAAAAAAAAAAAAAAAAAAAAAAAAAAAAAAAAAAAAAAAAAAAAAAAAAAAAAAAAAAAAAAAAAAAAAAAAAAAAAAAAAAAAAAAAAAAAAAAAAAAAAAAAAAAAAAAAAAAAAAAAAAAAAAAAAAAAAAAAAAAAAAAAAAAAAAAAAAAAAAAAAAAAAAAAAAAAAAAAAAAAAAAAAAAAAAAAAAAAAAAAAAAAAAAAAAAAAAAAAAAAAAAAAAAAAAAAAAAAAAAAAAAAAAAAAAAAAAAAAAAAAAAAAAAAAAAAAAAAAAAAAAAAAAAAAAAAAAAAAAAAAAAAAAAAAAAAAAAAAAAAAAAAAAAAAAAAAAAAAAAAAAAAAAAAAAAAAAAAAAAAAAAAAAAAAAAAAAAAAAAAAAAAAAAAAAAAAAAAAAAAAAAAAAAAAAAAAAAAAAAAAAAAAAAAAAAAAAAAAAAAAAAAAAAAAAAAAAAAAAAAAAAAAAAAAAAAAAAAAAAAAAAAAAAAAAAAAAAAAAAAAAAAAAAAAAAAAAAAAAAAAAAAAAAAAAAAAAAAAAAAAAAAAAAAAAAAAAAAAAAAAAAAAAAAAAAAAAAAAAAAAAAAAAAAAAAAAAAAAAAAAAAAAAAAAAAAAAAAAAAAAAAAAAAAAAAAAAAAAAAAAAAAAAAAAAAAAAAAAAAAAAAAAAAAAAAAAAAAAAAAAAAAAAAAAAAAAAAAAAAAAAAAAAAAAAAAAAAAAAAAAAAAAAAAAAAAAAAAAAAAAAAAAAAAAAAAAAAAAAAAAAAAAAAAAAAAAAAAAAAAAAAAAAAAAAAAAAAAAAAAAAAAAAAAAAAAAAAAAAAAAAAAAAAAAAAAAAAAAAAAAAAAAAAAAAAAAAAAAAAAAAAAAAAAAAAAAAAAAAAAAAAAAAAAAAAAAAAAAAAAAAAAAAAAAAAAAAAAAAAAAAAAAAAAAAAAAAAAAAAAAAAAAAAAAAAAAAAAAAAAAAAAAAAAAAAAAAAAAAAAAAAAAAAAAAAAAAAAAAAAAAAAAAAAAAAAAAAAAAAAAAAAAAAAAAAAAAAAAAAAAAAAAAAAAAAAAAAAAAAAAAAAAAAAAAAAAAAAAAAAAAAAAAAAAAAAAAAAAAAAAAAAAAAAAAAAAAAAAAAAAAAAAAAAAAAAAAAAAAAAAAAAAAAAAAAAAAAAAAAAAAAAAAAAAAAAAAAAAAAAAAAAAAAAAAAAAAAAAAAAAAAAAAAAAAAAAAAAAAAAAAAAAAAAAAAAAAAAAAAAAAAAAAAAAAAAAAAAAAAAAAAAAAAAAAAAAAAAAAAAAAAAAAAAAAAAAAAAAAAAAAAAAAAAAAAAAAAAAAAAAAAAAAAAAAAAAAAAAAAAAAAAAAAAAAAAAAAAAAAAAAAAAAAAAAAAAAAAAAAAAAAAAAAAAAAAAAAAAAAAAAAAAAAAAAAAAAAAAAAAAAAAAAAAAAAAAAAAAAAAAAAAAAAAAAAAAAAAAAAAAAAAAAAAAAAAAAAAAAAAAAAAAAAAAAAAAAAAAAAAAAAAAAAAAAAAAAAAAAAAAAAAAAAAAAAAAAAAAAAAAAAAAAAAAAAAAAAAAAAAAAAAAAAAAAAAAAAAAAAAAAAAAAAAAAAAAAAAAAAAAAAAAAAAAAAAAAAAAAAAAAAAAAAAAAAAAAAAAAAAAAAAAAAAAAAAAAAAAAAAAAAAAAAAAAAAAAAAAAAAAAAAAAAAAAAAAAAAAAAAAAAAAAAAAAAAAAAAAAAAAAAAAAAAAAAAAAAAAAAAAAAAAAAAAAAAAAAAAAAAAAAAAAAAAAAAAAAAAAAAAAAAAAAAAAAAAAAAAAAAAAAAAAAAAAAAAAAAAAAAAAAAAAAAAAAAAAAAAAAAAAAAAAAAAAAAAAAAAAAAAAAAAAAAAAAAAAAAAAAAAAAAAAAAAAAAAAAAAAAAAAAAAAAAAAAAAAAAAAAAAAAAAAAAAAAAAAAAAAAAAAAAAAAAAAAAAAAAAAAAAAAAAAAAAAAAAAAAAAAAAAAAAAAAAAAAAAAAAAAAAAAAAAAAAAAAAAAAAAAAAAAAAAAAAAAAAAAAAAAAAAAAAAAAAAAAAAAAAAAAAAAAAAAAAAAAAAAAAAAAAAAAAAAAAAAAAAAAAAAAAAAAAAAAAAAAAAAAAAAAAAAAAAAAAAAAAAAAAAAAAAAAAAAAAAAAAAAAAAAAAAAAAAAAAAAAAAAAAAAAAAAAAAAAAAAAAAAAAAAAAAAAAAAAAAAAAAAAAAAAAAAAAAAAAAAAAAAAAAAAAAAAAAAAAAAAAAAAAAAAAAAAAAAAAAAAAAAAAAAAAAAAAAAAAAAAAAAAAAAAAAAAAAAAAAAAAAAAAAAAAAAAAAAAAAAAAAAAAAAAAAAAAAAAAAAAAAAAAAAAAAAAAAAAAAAAAAAAAAAAAAAAAAAAAAAAAAAAAAAAAAAAAAAAAAAAAAAAAAAAAAAAAAAAAAAAAAAAAAAAAAAAAAAAAAAAAAAAAAAAAAAAAAAAAAAAAAAAAAAAAAAAAAAAAAAAAAAAAAAAAAAAAAAAAAAAAAAAAAAAAAAAAAAAAAAAAAAAAAAAAAAAAAAAAAAAAAAAAAAAAAAAAAAAAAAAAAAAAAAAAAAAAAAAAAAAAAAAAAAAAAAAAAAAAAAAAAAAAAAAAAAAAAAAAAAAAAAAAAAAAAAAAAAAAAAAAAAAAAAAAAAAAAAAAAAAAAAAAAAAAAAAAAAAAAAAAAAAAAAAAAAAAAAAAAAAAAAAAAAAAAAAAAAAAAAAAAAAAAAAAAAAAAAAAAAAAAAAAAAAAAAAAAAAAAAAAAAAAAAAAAAAAAAAAAAAAAAAAAAAAAAAAAAAAAAAAAAAAAAAAAAAAAAAAAAAAAAAAAAAAAAAAAAAAAAAAAAAAAAAAAAAAAAAAAAAAAAAAAAAAAAAAAAAAAAAAAAAAAAAAAAAAAAAAAAAAAAAAAAAAAAAAAAAAAAAAAAAAAAAAAAAAAAAAAAAAAAAAAAAAAAAAAAAAAAAAAAAAAAAAAAAAAAAAAAAAAAAAAAAAAAAAAAAAAAAAAAAAAAAAAAAAAAAAAAAAAAAAAAAAAAAAAAAAAAAAAAAAAAAAAAAAAAAAAAAAAAAAAAAAAAAAAAAAAAAAAAAAAAAAAAAAAAAAAAAAAAAAAAAAAAAAAAAAAAAAAAAAAAAAAAAAAAAAAAAAAAAAAAAAAAAAAAAAAAAAAAAAAAAAAAAAAAAAAAAAAAAAAAAAAAAAAAAAAAAAAAAAAAAAAAAAAAAAAAAAAAAAAAAAAAAAAAAAAAAAAAAAAAAAAAAAAAAAAAAAAAAAAAAAAAAAAAAAAAAAAAAAAAAAAAAAAAAAAAAAAAAAAAAAAAAAAAAAAAAAAAAAAAAAAAAAAAAAAAAAAAAAAAAAAAAAAAAAAAAAAAAAAAAAAAAAAAAAAAAAAAAAAAAAAAAAAAAAAAAAAAAAAAAAAAAAAAAAAAAAAAAAAAAAAAAAAAAAAAAAAAAAAAAAAAAAAAAAAAAAAAAAAAAAAAAAAAAAAAAAAAAAAAAAAAAAAAAAAAAAAAAAAAAAAAAAAAAAAAAAAAAAAAAAAAAAAAAAAAAAAAAAAAAAAAAAAAAAAAAAAAAAAAAAAAAAAAAAAAAAAAAAAAAAAAAAAAAAAAAAAAAAAAAAAAAAAAAAAAAAAAAAAAAAAAAAAAAAAAAAAAAAAAAAAAAAAAAAAAAAAAAAAAAAAAAAAAAAAAAAAAAAAAAAAAAAAAAAAAAAAAAAAAAAAAAAAAAAAAAAAAAAAAAAAAAAAAAAAAAAAAAAAAAAAAAAAAAAAAAAAAAAAAAAAAAAAAAAAAAAAAAAAAAAAAAAAAAAAAAAAAAAAAAAAAAAAAAAAAAAAAAAAAAAAAAAAAAAAAAAAAAAAAAAAAAAAAAAAAAAAAAAAAAAAAAAAAAAAAAAAAAAAAAAAAAAAAAAAAAAAAAAAAAAAAAAAAAAAAAAAAAAAAAAAAAAAAAAAAAAAAAAAAAAAAAAAAAAAAAAAAAAAAAAAAAAAAAAAAAAAAAAAAAAAAAAAAAAAAAAAAAAAAAAAAAAAAAAAAAAAAAAAAAAAAAAAAAAAAAAAAAAAAAAAAAAAAAAAAAAAAAAAAAAAAAAAAAAAAAAAAAAAAAAAAAAAAAAAAAAAAAAAAAAAAAAAAAAAAAAAAAAAAAAAAAAAAAAAAAAAAAAAAAAAAAAAAAAAAAAAAAAAAAAAAAAAAAAAAAAAAAAAAAAAAAAAAAAAAAAAAAAAAAAAAAAAAAAAAAAAAAAAAAAAAAAAAAAAAAAAAAAAAAAAAAAAAAAAAAAAAAAAAAAAAAAAAAAAAAAAAAAAAAAAAAAAAAAAAAAAAAAAAAAAAAAAAAAAAAAAAAAAAAAAAAAAAAAAAAAAAAAAAAAAAAAAAAAAAAAAAAAAAAAAAAAAAAAAAAAAAAAAAAAAAAAAAAAAAAAAAAAAAAAAAAAAAAAAAAAAAAAAAAAAAAAAAAAAAAAAAAAAAAAAAAAAAAAAAAAAAAAAAAAAAAAAAAAAAAAAAAAAAAAAAAAAAAAAAAAAAAAAAAAAAAAAAAAAAAAAAAAAAAAAAAAAAAAAAAAAAAAAAAAAAAAAAAAAAAAAAAAAAAAAAAAAAAAAAAAAAAAAAAAAAAAAAAAAAAAAAAAAAAAAAAAAAAAAAAAAAAAAAAAAAAAAAAAAAAAAAAAAAAAAAAAAAAAAAAAAAAAAAAAAAAAAAAAAAAAAAAAAAAAAAAAAAAAAAAAAAAAAAAAAAAAAAAAAAAAAAAAAAAAAAAAAAAAAAAAAAAAAAAAAAAAAAAAAAAAAAAAAAAAAAAAAAAAAAAAAAAAAAAAAAAAAAAAAAAAAAAAAAAAAAAAAAAAAAAAAAAAAAAAAAAAAAAAAAAAAAAAAAAAAAAAAAAAAAAAAAAAAAAAAAAAAAAAAAAAAAAAAAAAAAAAAAAAAAAAAAAAAAAAAAAAAAAAAAAAAAAAAAAAAAAAAAAAAAAAAAAAAAAAAAAAAAAAAAAAAAAAAAAAAAAAAAAAAAAAAAAAAAAAAAAAAAAAAAAAAAAAAAAAAAAAAAAAAAAAAAAAAAAAAAAAAAAAAAAAAAAAAAAAAAAAAAAAAAAAAAAAAAAAAAAAAAAAAAAAAAAAAAAAAAAAAAAAAAAAAAAAAAAAAAAAAAAAAAAAAAAAAAAAAAAAAAAAAAAAAAAAAAAAAAAAAAAAAAAAAAAAAAAAAAAAAAAAAAAAAAAAAAAAAAAAAAAAAAAAAAAAAAAAAAAAAAAAAAAAAAAAAAAAAAAAAAAAAAAAAAAAAAAAAAAAAAAAAAAAAAAAAAAAAAAAAAAAAAAAAAAAAAAAAAAAAAAAAAAAAAAAAAAAAAAAAAAAAAAAAAAAAAAAAAAAAAAAAAAAAAAAAAAAAAAAAAAAAAAAAAAAAAAAAAAAAAAAAAAAAAAAAAAAAAAAAAAAAAAAAAAAAAAAAAAAAAAAAAAAAAAAAAAAAAAAAAAAAAAAAAAAAAAAAAAAAAAAAAAAAAAAAAAAAAAAAAAAAAAAAAAAAAAAAAAAAAAAAAAAAAAAAAAAAAAAAAAAAAAAAAAAAAAAAAAAAAAAAAAAAAAAAAAAAAAAAAAAAAAAAAAAAAAAAAAAAAAAAAAAAAAAAAAAAAAAAAAAAAAAAAAAAAAAAAAAAAAAAAAAAAAAAAAAAAAAAAAAAAAAAAAAAAAAAAAAAAAAAAAAAAAAAAAAAAAAAAAAAAAAAAAAAAAAAAAAAAAAAAAAAAAAAAAAAAAAAAAAAAAAAAAAAAAAAAAAAAAAAAAAAAAAAAAAAAAAAAAAAAAAAAAAAAAAAAAAAAAAAAAAAAAAAAAAAAAAAAAAAAAAAAAAAAAAAAAAAAAAAAAAAAAAAAAAAAAAAAAAAAAAAAAAAAAAAAAAAAAAAAAAAAAAAAAAAAAAAAAAAAAAAAAAAAAAAAAAAAAAAAAAAAAAAAAAAAAAAAAAAAAAAAAAAAAAAAAAAAAAAAAAAAAAAAAAAAAAAAAAAAAAAAAAAAAAAAAAAAAAAAAAAAAAAAAAAAAAAAAAAAAAAAAAAAAAAAAAAAAAAAAAAAAAAAAAAAAAAAAAAAAAAAAAAAAAAAAAAAAAAAAAAAAAAAAAAAAAAAAAAAAAAAAAAAAAAAAAAAAAAAAAAAAAAAAAAAAAAAAAAAAAAAAAAAAAAAAAAAAAAAAAAAAAAAAAAAAAAAAAAAAAAAAAAAAAAAAAAAAAAAAAAAAAAAAAAAAAAAAAAAAAAAAAAAAAAAAAAAAAAAAAAAAAAAAAAAAAAAAAAAAAAAAAAAAAAAAAAAAAAAAAAAAAAAAAAAAAAAAAAAAAAAAAAAAAAAAAAAAAAAAAAAAAAAAAAAAAAAAAAAAAAAAAAAAAAAAAAAAAAAAAAAAAAAAAAAAAAAAAAAAAAAAAAAAAAAAAAAAAAAAAAAAAAAAAAAAAAAAAAAAAAAAAAAAAAAAAAAAAAAAAAAAAAAAAAAAAAAAAAAAAAAAAAAAAAAAAAAAAAAAAAAAAAAAAAAAAAAAAAAAAAAAAAAAAAAAAAAAAAAAAAAAAAAAAAAAAAAAAAAAAAAAAAAAAAAAAAAAAAAAAAAAAAAAAAAAAAAAAAAAAAAAAAAAAAAAAAAAAAAAAAAAAAAAAAAAAAAAAAAAAAAAAAAAAAAAAAAAAAAAAAAAAAAAAAAAAAAAAAAAAAAAAAAAAAAAAAAAAAAAAAAAAAAAAAAAAAAAAAAAAAAAAAAAAAAAAAAAAAAAAAAAAAAAAAAAAAAAAAAAAAAAAAAAAAAAAAAAAAAAAAAAAAAAAAAAAAAAAAAAAAAAAAAAAAAAAAAAAAAAAAAAAAAAAAAAAAAAAAAAAAAAAAAAAAAAAAAAAAAAAAAAAAAAAAAAAAAAAAAAAAAAAAAAAAAAAAAAAAAAAAAAAAAAAAAAAAAAAAAAAAAAAAAAAAAAAAAAAAAAAAAAAAAAAAAAAAAAAAAAAAAAAAAAAAAAAAAAAAAAAAAAAAAAAAAAAAAAAAAAAAAAAAAAAAAAAAAAAAAAAAAAAAAAAAAAAAAAAAAAAAAAAAAAAAAAAAAAAAAAAAAAAAAAAAAAAAAAAAAAAAAAAAAAAAAAAAAAAAAAAAAAAAAAAAAAAAAAAAAAAAAAAAAAAAAAAAAAAAAAAAAAAAAAAAAAAAAAAAAAAAAAAAAAAAAAAAAAAAAAAAAAAAAAAAAAAAAAAAAAAAAAAAAAAAAAAAAAAAAAAAAAAAAAAAAAAAAAAAAAAAAAAAAAAAAAAAAAAAAAAAAAAAAAAAAAAAAAAAAAAAAAAAAAAAAAAAAAAAAAAAAAAAAAAAAAAAAAAAAAAAAAAAAAAAAAAAAAAAAAAAAAAAAAAAAAAAAAAAAAAAAAAAAAAAAAAAAAAAAAAAAAAAAAAAAAAAAAAAAAAAAAAAAAAAAAAAAAAAAAAAAAAAAAAAAAAAAAAAAAAAAAAAAAAAAAAAAAAAAAAAAAAAAAAAAAAAAAAAAAAAAAAAAAAAAAAAAAAAAAAAAAAAAAAAAAAAAAAAAAAAAAAAAAAAAD2WEDAURdTUkGqfkJC0oiRylOJiPBgP/Bvic5p0x+2G6SaOdov1ODfV3UXbENM4E6NbPSmDrcLEQ7ZVYx/VO+BgZwI</c2pa:manifest></metadata>
  <defs>
    <style>
      .cls-1 {
        fill: #010101;
      }

      .cls-2 {
        fill: #fa5a01;
      }

      .cls-3, .cls-4 {
        fill: #fff;
      }

      .cls-5 {
        fill: #010202;
      }

      .cls-4 {
        stroke: #000;
        stroke-miterlimit: 10;
        stroke-width: 5px;
      }

      .cls-6 {
        fill: #fefefd;
      }

      .cls-7 {
        fill: #fa5a00;
      }

      .cls-8 {
        fill: #b6b6b5;
      }

      .cls-9 {
        fill: #b6b6b6;
      }

      .cls-10 {
        fill: #fefefe;
      }

      .cls-11 {
        fill: #b5b5b5;
      }
    </style>
  </defs>
  <g id="Layer_1-2" data-name="Layer 1">
    <g id="Generative_Object" data-name="Generative Object">
      <rect class="cls-3" x="12.77" y="58.58" width="317.87" height="225.96"/>
      <path class="cls-1" d="M318.57,309.43l-273.29-.37c-20.58-.03-34.76-19.76-34.73-39.01l.24-174.71c1.44-19.07,17.08-35.28,36.55-35.31l116.99-.19c-.03-25.9,20.71-46.28,45.9-46.32,25.19-.04,45.86,20.46,45.89,46.3l61.32.32c19.73.1,34.67,17.88,35.03,37.38l.04,173.83c0,19.57-14.08,35.74-33.96,38.07Z"/>
      <g>
        <path class="cls-1" d="M308.02,295.91l-273.29-.37C14.15,295.51-.03,275.78,0,256.52L.24,81.82c1.44-19.07,17.08-35.28,36.55-35.31l116.99-.19C153.75,20.42,174.49.04,199.69,0c25.19-.04,45.86,20.46,45.89,46.3l61.32.32c19.73.1,34.67,17.88,35.03,37.38l.04,173.83c0,19.57-14.08,35.74-33.96,38.07Z"/>
        <g>
          <path class="cls-10" d="M214.06,194.07l84.34-.08c6.1-.47,10.4-5.14,10.42-11.09l.08-17.66c.03-6.28-4.11-11.43-10.53-12.23l-84.26.04v-25.83s82.82-.02,82.82-.02c6.67.23,11.89-4.78,11.89-11.3v-18.24c0-6.48-5.21-11.59-11.84-11.37l-73.87-.19c9.72-6.44,16.96-14.68,20.36-26.15l62.49.27c12.33.05,21.26,11.13,22.33,23.11l-.25,176.59c-.02,11.99-10.6,20.91-21.82,22.14l-92.15.03.03-21.18,82.85-.02c6.26.32,11.74-4.13,11.74-10.4v-20.06c0-6.5-5.97-11.15-12.47-10.52h-82.11s-.06-25.81-.06-25.81Z"/>
          <path class="cls-8" d="M302.24,115.74c0,3.4-2.61,5.08-5.61,4.96l-82.52-.08v-27.83s83.41.03,83.41.03c2.68.14,4.75,2,4.75,4.68l-.02,18.24Z"/>
          <path class="cls-2" d="M302.31,182.03c0,3.14-1.7,5.38-4.63,5.45l-83.65.03.06-28.01h83.52c3.26.26,4.63,2.7,4.64,5.72l.05,16.81Z"/>
          <path class="cls-11" d="M302.3,249.05c0,3.18-1.75,5.13-4.68,5.28h-83.53s.01-27.91.01-27.91l83.5-.02c2.94.46,4.72,2.28,4.72,5.12v17.53Z"/>
          <path class="cls-7" d="M112.8,187.5c-2.92-.16-4.79-2.01-4.79-4.46l-.03-19.2c0-2.45,2-4.23,4.45-4.33h76.35s.04,27.98.04,27.98h-76.01Z"/>
          <path class="cls-9" d="M114.18,254.31c-3.57.4-6.2-1.82-6.21-4.93l-.04-18.56c0-2.75,2.42-4.56,5.18-4.42h75.64s0,27.95,0,27.95l-74.57-.04Z"/>
          <path class="cls-11" d="M113.49,120.63c-3.68.07-5.6-2.22-5.59-5.27l.06-17.88c0-2.55,2.04-4.44,4.58-4.68l76.24-.03-.05,27.87h-75.23Z"/>
          <g>
            <path class="cls-10" d="M111.27,194.03l77.45-.03.06,25.86-77.86.04c-5.58.92-9.66,5.5-9.64,11.11l.08,19.47c.03,6.28,5.45,10.7,11.71,10.42l75.64.03v21.17s-152.52-.01-152.52-.01c-13.04-1.25-22.29-11.83-22.28-24.95l.06-172.35c0-13.08,9.52-23.39,22.29-24.84h119.53c3.37,11.08,10.56,19.62,20.46,26.21l-63.89.1c-6.3.29-11.16,5.17-11.13,11.42l.09,18.79c.03,5.95,4.72,10.19,10.64,10.76h76.79s-.03,25.82-.03,25.82h-77.78c-5.8.97-9.73,5.79-9.7,11.57l.1,18.87c.03,5.43,4.12,9.68,9.92,10.55Z"/>
            <path class="cls-5" d="M74.61,246.81l-33.55.28c-3.87.03-6.72-2.67-7.15-6.05-.44-3.46,1.94-7.71,5.96-7.72l33.72-.04c3.54,0,5.87,2.93,6.37,6.01.46,2.88-1.43,7.49-5.35,7.52Z"/>
            <path class="cls-1" d="M74.83,180.04l-33.05.34c-4.3.04-7.52-2.42-7.87-6.28-.37-4.06,2.65-7.66,7.13-7.64l32.83.13c3.55.01,5.86,3.2,6.1,6.31.21,2.6-1.32,7.09-5.14,7.13Z"/>
            <path class="cls-1" d="M74.82,113.19l-33.78.37c-4.32.05-7.19-3.11-7.23-7.09-.03-3.67,2.99-6.68,7.27-6.66l32.63.1c3.5.01,5.72,3.05,6.12,5.9s-1.16,7.33-5.01,7.38Z"/>
          </g>
          <g>
            <path class="cls-2" d="M195.1,281.97l.04-196.24c-10.13-1.12-18.54-5.85-25.35-13.7-10.58-12.19-12.7-28.86-5.4-43.69,6.49-13.19,20.62-22.4,36.32-21.97,20.54.82,36.45,16.4,38.34,36.26,1.89,19.86-11.36,38.14-31.27,42.66l.03,196.6-12.71.09Z"/>
            <path class="cls-6" d="M217.76,49.35l-24.75,15.44c-1.09.68-2.68.82-3.59.33-.73-.4-1.87-1.51-1.87-2.84l-.02-32.22c0-1.22.64-2.3,1.24-2.72.68-.47,2.4-.87,3.32-.29l25.46,15.89c1.24.77,2.08,1.73,2.22,3.03.11,1.05-.57,2.49-2.02,3.39Z"/>
          </g>
        </g>
      </g>
    </g>
    <g>
      <path d="M491.08,156.8h-75.59V29.48h75.59v27.61h-41.19v20.03h38.15v27.61h-38.15v24.04h41.19v28.04Z"/>
      <path d="M537.24,156.8l-37.62-98.67h35.53l16.72,58.35c.17.52.48,1.86.91,4.01.44,2.15.65,4.15.65,6.01h.61c0-1.97.2-3.86.61-5.66.41-1.8.72-3.19.96-4.18l17.51-58.53h35.45l-37.62,98.67h-33.7Z"/>
      <path d="M664.74,56.39c9.58,0,17.85,1.67,24.82,5.01,6.97,3.34,12.34,8.35,16.11,15.02,3.77,6.68,5.66,15.04,5.66,25.08v15.15h-60.88c.29,5.17,2.22,9.41,5.79,12.71,3.57,3.31,8.84,4.96,15.81,4.96,6.15,0,11.8-.61,16.94-1.83,5.14-1.22,10.44-3.11,15.89-5.66v24.47c-4.76,2.5-9.96,4.33-15.59,5.49-5.63,1.16-12.75,1.74-21.34,1.74-9.93,0-18.81-1.77-26.65-5.31-7.84-3.54-14.01-9.03-18.51-16.46-4.5-7.43-6.75-16.98-6.75-28.65s2.03-21.58,6.1-29.22c4.06-7.63,9.75-13.29,17.07-16.98,7.32-3.69,15.82-5.53,25.52-5.53ZM665.96,79.55c-4.01,0-7.36,1.26-10.06,3.79-2.7,2.53-4.28,6.49-4.75,11.89h29.26c-.06-2.9-.64-5.54-1.74-7.93-1.1-2.38-2.71-4.27-4.83-5.66-2.12-1.39-4.75-2.09-7.88-2.09Z"/>
      <path d="M792.33,56.39c10.16,0,18.46,2.87,24.91,8.62,6.45,5.75,9.67,14.95,9.67,27.61v64.19h-34.05v-53.82c0-6.56-.94-11.51-2.83-14.85-1.89-3.34-4.92-5.01-9.1-5.01-6.44,0-10.77,2.63-12.98,7.88-2.21,5.26-3.31,12.79-3.31,22.6v43.2h-34.05V58.13h25.69l4.62,13.06h1.31c2.09-3.14,4.59-5.81,7.49-8.01,2.9-2.21,6.24-3.89,10.01-5.05,3.77-1.16,7.98-1.74,12.63-1.74Z"/>
      <path d="M898.41,131.63c3.08,0,5.89-.32,8.45-.96,2.55-.64,5.23-1.45,8.01-2.44v24.82c-3.72,1.63-7.65,2.95-11.8,3.96-4.15,1.01-9.45,1.52-15.89,1.52s-12.02-1-16.9-3c-4.88-2-8.67-5.49-11.37-10.45-2.7-4.96-4.05-11.89-4.05-20.77v-40.67h-11.93v-13.85l15.15-10.71,8.8-20.73h22.3v19.77h24.21v25.52h-24.21v38.41c0,3.19.81,5.59,2.44,7.18,1.62,1.6,3.89,2.4,6.79,2.4Z"/>
      <path d="M1005.44,126.49c0,6.27-1.39,11.82-4.18,16.63s-7.24,8.59-13.37,11.32c-6.13,2.73-14.18,4.09-24.17,4.09-7.03,0-13.31-.38-18.86-1.13-5.54-.75-11.16-2.21-16.85-4.35v-27.26c6.21,2.84,12.54,4.89,18.99,6.14,6.45,1.25,11.52,1.87,15.24,1.87s6.63-.42,8.4-1.26c1.77-.84,2.66-2.1,2.66-3.79,0-1.45-.6-2.69-1.79-3.7-1.19-1.02-3.31-2.19-6.36-3.53-3.05-1.33-7.33-3.14-12.85-5.4-5.46-2.26-10-4.73-13.63-7.4-3.63-2.67-6.34-5.86-8.14-9.58-1.8-3.71-2.7-8.27-2.7-13.67,0-9.64,3.71-16.9,11.15-21.77,7.43-4.88,17.27-7.32,29.52-7.32,6.5,0,12.63.71,18.38,2.13,5.75,1.42,11.7,3.5,17.85,6.23l-9.32,21.95c-4.88-2.21-9.81-3.98-14.81-5.31-4.99-1.33-8.97-2-11.93-2-2.67,0-4.73.35-6.18,1.05-1.45.7-2.18,1.71-2.18,3.05,0,1.22.51,2.29,1.52,3.22,1.01.93,2.95,2,5.79,3.22s7,2.93,12.45,5.14c5.75,2.32,10.49,4.81,14.24,7.45,3.75,2.64,6.53,5.85,8.36,9.62,1.83,3.78,2.74,8.57,2.74,14.37Z"/>
    </g>
    <g>
      <path class="cls-4" d="M483.08,150.8h-75.59V23.48h75.59v27.61h-41.19v20.03h38.15v27.61h-38.15v24.04h41.19v28.04Z"/>
      <path class="cls-4" d="M529.24,150.8l-37.62-98.67h35.53l16.72,58.35c.17.52.48,1.86.91,4.01.44,2.15.65,4.15.65,6.01h.61c0-1.97.2-3.86.61-5.66.41-1.8.72-3.19.96-4.18l17.51-58.53h35.45l-37.62,98.67h-33.7Z"/>
      <path class="cls-4" d="M656.74,50.39c9.58,0,17.85,1.67,24.82,5.01,6.97,3.34,12.34,8.35,16.11,15.02,3.77,6.68,5.66,15.04,5.66,25.08v15.15h-60.88c.29,5.17,2.22,9.41,5.79,12.71,3.57,3.31,8.84,4.96,15.81,4.96,6.15,0,11.8-.61,16.94-1.83,5.14-1.22,10.44-3.11,15.89-5.66v24.47c-4.76,2.5-9.96,4.33-15.59,5.49-5.63,1.16-12.75,1.74-21.34,1.74-9.93,0-18.81-1.77-26.65-5.31-7.84-3.54-14.01-9.03-18.51-16.46-4.5-7.43-6.75-16.98-6.75-28.65s2.03-21.58,6.1-29.22c4.06-7.63,9.75-13.29,17.07-16.98,7.32-3.69,15.82-5.53,25.52-5.53ZM657.96,73.55c-4.01,0-7.36,1.26-10.06,3.79-2.7,2.53-4.28,6.49-4.75,11.89h29.26c-.06-2.9-.64-5.54-1.74-7.93-1.1-2.38-2.71-4.27-4.83-5.66-2.12-1.39-4.75-2.09-7.88-2.09Z"/>
      <path class="cls-4" d="M784.33,50.39c10.16,0,18.46,2.87,24.91,8.62,6.45,5.75,9.67,14.95,9.67,27.61v64.19h-34.05v-53.82c0-6.56-.94-11.51-2.83-14.85-1.89-3.34-4.92-5.01-9.1-5.01-6.44,0-10.77,2.63-12.98,7.88-2.21,5.26-3.31,12.79-3.31,22.6v43.2h-34.05V52.13h25.69l4.62,13.06h1.31c2.09-3.14,4.59-5.81,7.49-8.01,2.9-2.21,6.24-3.89,10.01-5.05,3.77-1.16,7.98-1.74,12.63-1.74Z"/>
      <path class="cls-4" d="M890.41,125.63c3.08,0,5.89-.32,8.45-.96,2.55-.64,5.23-1.45,8.01-2.44v24.82c-3.72,1.63-7.65,2.95-11.8,3.96-4.15,1.01-9.45,1.52-15.89,1.52s-12.02-1-16.9-3c-4.88-2-8.67-5.49-11.37-10.45-2.7-4.96-4.05-11.89-4.05-20.77v-40.67h-11.93v-13.85l15.15-10.71,8.8-20.73h22.3v19.77h24.21v25.52h-24.21v38.41c0,3.19.81,5.59,2.44,7.18,1.62,1.6,3.89,2.4,6.79,2.4Z"/>
      <path class="cls-4" d="M997.44,120.49c0,6.27-1.39,11.82-4.18,16.63s-7.24,8.59-13.37,11.32c-6.13,2.73-14.18,4.09-24.17,4.09-7.03,0-13.31-.38-18.86-1.13-5.54-.75-11.16-2.21-16.85-4.35v-27.26c6.21,2.84,12.54,4.89,18.99,6.14,6.45,1.25,11.52,1.87,15.24,1.87s6.63-.42,8.4-1.26c1.77-.84,2.66-2.1,2.66-3.79,0-1.45-.6-2.69-1.79-3.7-1.19-1.02-3.31-2.19-6.36-3.53-3.05-1.33-7.33-3.14-12.85-5.4-5.46-2.26-10-4.73-13.63-7.4-3.63-2.67-6.34-5.86-8.14-9.58-1.8-3.71-2.7-8.27-2.7-13.67,0-9.64,3.71-16.9,11.15-21.77,7.43-4.88,17.27-7.32,29.52-7.32,6.5,0,12.63.71,18.38,2.13,5.75,1.42,11.7,3.5,17.85,6.23l-9.32,21.95c-4.88-2.21-9.81-3.98-14.81-5.31-4.99-1.33-8.97-2-11.93-2-2.67,0-4.73.35-6.18,1.05-1.45.7-2.18,1.71-2.18,3.05,0,1.22.51,2.29,1.52,3.22,1.01.93,2.95,2,5.79,3.22s7,2.93,12.45,5.14c5.75,2.32,10.49,4.81,14.24,7.45,3.75,2.64,6.53,5.85,8.36,9.62,1.83,3.78,2.74,8.57,2.74,14.37Z"/>
      <path class="cls-4" d="M465.58,245.09h44.5v61.75c-6.68,2.26-13.54,3.95-20.6,5.05-7.05,1.1-14.94,1.66-23.65,1.66-13.24,0-24.4-2.64-33.49-7.93-9.09-5.28-15.98-12.82-20.68-22.6-4.7-9.78-7.05-21.41-7.05-34.88s2.6-24.68,7.79-34.49c5.2-9.81,12.71-17.43,22.56-22.86,9.84-5.43,21.67-8.14,35.49-8.14,7.08,0,13.8.65,20.16,1.96,6.36,1.31,12.26,3.15,17.72,5.53l-5.66,12.89c-4.7-2.03-9.88-3.77-15.55-5.23-5.66-1.45-11.51-2.18-17.55-2.18-10.39,0-19.29,2.15-26.69,6.44-7.4,4.3-13.06,10.36-16.98,18.2-3.92,7.84-5.88,17.13-5.88,27.87s1.71,19.87,5.14,27.74c3.42,7.87,8.77,13.98,16.02,18.33,7.26,4.36,16.6,6.53,28.04,6.53,5.75,0,10.68-.33,14.81-1,4.12-.67,7.87-1.46,11.24-2.39v-39.02h-29.7v-13.24Z"/>
      <path class="cls-4" d="M617.46,216.35v95.45h-11.84l-2.09-13.41h-.78c-1.97,3.31-4.53,6.1-7.66,8.36-3.14,2.26-6.66,3.96-10.58,5.09-3.92,1.13-8.08,1.7-12.5,1.7-7.55,0-13.88-1.22-18.99-3.66-5.11-2.44-8.96-6.21-11.54-11.32-2.58-5.11-3.88-11.67-3.88-19.68v-62.53h14.63v61.49c0,7.96,1.8,13.89,5.4,17.81,3.6,3.92,9.09,5.88,16.46,5.88s12.73-1.33,16.94-4.01c4.21-2.67,7.24-6.6,9.1-11.8,1.86-5.2,2.79-11.57,2.79-19.12v-50.25h14.54Z"/>
      <path class="cls-4" d="M655.43,180.64c2.38,0,4.43.77,6.14,2.31,1.71,1.54,2.57,3.93,2.57,7.18s-.86,5.57-2.57,7.14c-1.71,1.57-3.76,2.35-6.14,2.35-2.5,0-4.57-.78-6.23-2.35-1.66-1.57-2.48-3.95-2.48-7.14s.83-5.65,2.48-7.18c1.65-1.54,3.73-2.31,6.23-2.31ZM662.49,216.35v95.45h-14.46v-95.45h14.46Z"/>
      <path class="cls-4" d="M727.02,313.54c-12.08,0-21.64-4.12-28.7-12.37-7.05-8.24-10.58-20.5-10.58-36.75s3.6-28.84,10.8-37.23c7.2-8.39,16.78-12.58,28.74-12.58,5.05,0,9.46.67,13.24,2,3.77,1.34,7.02,3.12,9.75,5.36,2.73,2.24,5.02,4.78,6.88,7.62h1.04c-.23-1.8-.47-4.27-.7-7.4-.23-3.14-.35-5.69-.35-7.66v-38.23h14.46v135.51h-11.67l-2.18-13.59h-.61c-1.8,2.84-4.08,5.43-6.84,7.75-2.76,2.32-6.04,4.17-9.84,5.53-3.8,1.36-8.29,2.05-13.46,2.05ZM729.29,301.53c10.22,0,17.45-2.9,21.69-8.71,4.24-5.81,6.36-14.43,6.36-25.87v-2.61c0-12.13-2.02-21.45-6.05-27.96-4.04-6.5-11.37-9.75-21.99-9.75-8.88,0-15.53,3.41-19.94,10.23-4.41,6.82-6.62,16.13-6.62,27.91s2.19,20.79,6.58,27.17c4.38,6.39,11.05,9.58,19.99,9.58Z"/>
      <path class="cls-4" d="M838.93,214.61c8.13,0,15.1,1.8,20.9,5.4,5.81,3.6,10.25,8.64,13.33,15.11,3.08,6.47,4.62,14.04,4.62,22.69v8.97h-65.93c.17,11.21,2.96,19.74,8.36,25.61s13,8.8,22.82,8.8c6.04,0,11.38-.55,16.02-1.66,4.64-1.1,9.46-2.73,14.46-4.88v12.72c-4.82,2.15-9.59,3.72-14.33,4.7-4.73.99-10.32,1.48-16.77,1.48-9.17,0-17.17-1.87-23.99-5.62-6.82-3.74-12.12-9.25-15.89-16.5-3.77-7.26-5.66-16.14-5.66-26.65s1.73-19.17,5.18-26.69c3.45-7.52,8.33-13.31,14.63-17.37,6.3-4.06,13.72-6.1,22.25-6.1ZM838.76,226.45c-7.72,0-13.88,2.53-18.46,7.58-4.59,5.05-7.32,12.11-8.19,21.16h50.51c-.06-5.69-.94-10.7-2.66-15.02-1.71-4.33-4.31-7.69-7.79-10.1-3.48-2.41-7.96-3.61-13.41-3.61Z"/>
    </g>
  </g>
</svg>